<?xml version="1.0" encoding="UTF-8" standalone="no"?>
<!DOCTYPE svg PUBLIC "-//W3C//DTD SVG 1.1//EN" "http://www.w3.org/Graphics/SVG/1.1/DTD/svg11.dtd">
<svg width="100%" height="100%" viewBox="0 0 670 98" version="1.1" xmlns="http://www.w3.org/2000/svg" xmlns:xlink="http://www.w3.org/1999/xlink" xml:space="preserve" xmlns:serif="http://www.serif.com/" style="fill-rule:evenodd;clip-rule:evenodd;stroke-linejoin:round;stroke-miterlimit:2;">
    <g id="Layer-1" serif:id="Layer 1" transform="matrix(1,0,0,1,34.2329,-332.847)">
        <g id="path868" transform="matrix(0.264583,0,0,0.264583,-34.2329,332.847)">
            <path d="M162.538,0C159.524,0.001 156.562,0.795 153.951,2.303L8.587,86.224C3.279,89.289 -0.001,94.971 0,101.101L0,268.948C-0.001,275.077 3.279,280.76 8.587,283.824L153.951,367.745C159.258,370.809 165.818,370.809 171.125,367.745L316.489,283.824C321.797,280.76 325.077,275.077 325.076,268.948L325.076,202.207L432.283,202.207L432.283,237.701L493.76,202.207L581.673,202.207C589.997,256.221 636.919,297.854 693.187,297.854C755.293,297.854 805.997,247.133 805.997,185.027C805.997,122.921 755.293,72.2 693.187,72.2C636.919,72.2 589.997,113.833 581.673,167.848L493.776,167.848L432.283,132.343L432.283,167.848L325.076,167.848L325.076,101.101C325.077,94.971 321.797,89.289 316.489,86.224L171.125,2.303C168.515,0.795 165.553,0.001 162.538,0ZM162.538,37.005L290.723,111.016L290.723,259.032L162.538,333.043L34.348,259.032L34.348,111.016L162.538,37.005ZM693.187,106.559C736.73,106.559 771.655,141.484 771.655,185.027C771.655,228.57 736.73,263.495 693.187,263.495C649.644,263.495 614.697,228.57 614.697,185.027C614.697,141.484 649.644,106.559 693.187,106.559ZM162.538,132.199C133.559,132.197 109.711,156.042 109.71,185.022L109.71,185.024C109.71,214.004 133.556,237.85 162.535,237.85L162.538,237.85C191.517,237.848 215.363,214.001 215.361,185.022C215.36,156.044 191.515,132.2 162.538,132.199ZM693.182,161.22L693.177,161.22C680.12,161.22 669.376,171.964 669.375,185.022L669.375,185.026C669.375,198.083 680.12,208.828 693.177,208.828L693.182,208.828C706.239,208.828 716.983,198.083 716.983,185.026L716.983,185.022C716.982,171.965 706.238,161.221 693.182,161.22Z" style="fill:rgb(36,36,36);fill-rule:nonzero;"/>
        </g>
        <g id="text7968">
            <rect id="path824" x="188.409" y="355.089" width="13.45" height="52.304" style="fill:rgb(36,36,36);"/>
            <path id="path826" d="M210.975,407.393L210.975,370.108L224.574,370.108L224.723,407.393L210.975,407.393ZM210.825,364.877L210.825,355.089L224.723,355.089L224.723,364.877L210.825,364.877Z" style="fill:rgb(36,36,36);fill-rule:nonzero;"/>
            <path id="path828" d="M246.467,407.393L230.701,369.36L245.421,369.36L255.956,397.007L252.594,397.007L261.336,369.36L275.832,369.36L260.066,407.393L246.467,407.393Z" style="fill:rgb(36,36,36);fill-rule:nonzero;"/>
            <path id="path830" d="M297.426,408.514C293.491,408.514 290.004,407.717 286.965,406.123C283.926,404.529 281.56,402.287 279.867,399.398C278.173,396.459 277.326,393.047 277.326,389.161C277.326,382.486 279.02,377.281 282.407,373.545C285.844,369.759 290.801,367.866 297.276,367.866C301.511,367.866 304.948,368.763 307.588,370.556C310.228,372.349 312.171,375.064 313.416,378.7C314.711,382.287 315.334,386.77 315.284,392.15L286.965,392.15L285.172,384.155L303.628,384.155L302.208,388.788C302.158,384.653 301.71,381.814 300.863,380.27C300.066,378.676 298.646,377.879 296.604,377.879C295.657,377.879 294.736,378.202 293.839,378.85C292.943,379.448 292.22,380.444 291.672,381.839C291.124,383.184 290.85,385.002 290.85,387.293C290.85,390.531 291.623,393.022 293.167,394.765C294.711,396.509 297.351,397.38 301.087,397.38C302.332,397.38 303.603,397.206 304.898,396.857C306.193,396.509 307.413,396.135 308.559,395.737C309.705,395.288 310.651,394.964 311.398,394.765L311.398,406.048C309.655,406.696 307.662,407.268 305.421,407.767C303.179,408.265 300.514,408.514 297.426,408.514Z" style="fill:rgb(36,36,36);fill-rule:nonzero;"/>
            <path id="path832" d="M322.009,372.648C322.855,372.2 324.101,371.727 325.745,371.228C327.389,370.68 329.232,370.182 331.274,369.734C333.366,369.286 335.458,368.912 337.55,368.613C339.643,368.314 341.536,368.165 343.229,368.165C346.517,368.165 349.406,368.563 351.897,369.36C354.387,370.108 356.33,371.453 357.725,373.395C359.12,375.288 359.817,377.978 359.817,381.465L359.817,407.393L346.218,407.393L346.218,384.753C346.218,383.756 346.069,382.91 345.77,382.212C345.521,381.465 345.122,380.892 344.574,380.494C344.076,380.045 343.428,379.722 342.631,379.522C341.884,379.323 341.012,379.223 340.016,379.223C339.07,379.223 338.123,379.373 337.177,379.672C336.28,379.921 335.757,380.17 335.608,380.419L335.608,407.393L322.009,407.393L322.009,372.648Z" style="fill:rgb(36,36,36);fill-rule:nonzero;"/>
            <path id="path834" d="M387.538,408.514C383.902,408.514 380.664,407.991 377.825,406.945C375.035,405.849 372.818,404.155 371.174,401.864C369.58,399.522 368.783,396.459 368.783,392.673L368.783,369.36L382.382,369.36L382.382,391.851C382.382,393.644 382.781,395.014 383.578,395.961C384.425,396.857 385.77,397.306 387.613,397.306C389.506,397.306 390.851,396.857 391.648,395.961C392.445,395.014 392.843,393.644 392.843,391.851L392.843,369.36L405.471,369.36L405.471,392.673C405.471,398.302 403.852,402.362 400.614,404.852C397.376,407.293 393.018,408.514 387.538,408.514Z" style="fill:rgb(36,36,36);fill-rule:nonzero;"/>
            <path id="path836" d="M451.498,381.465L451.498,407.393L437.899,407.393L437.899,384.753C437.899,383.756 437.75,382.91 437.451,382.212C437.202,381.465 436.804,380.892 436.256,380.494C435.757,380.045 435.11,379.722 434.313,379.522C433.566,379.323 432.694,379.223 431.698,379.223C430.751,379.223 429.929,379.373 429.232,379.672C428.584,379.921 428.186,380.17 428.036,380.419L428.036,407.393L414.437,407.393L414.437,372.648C415.284,372.2 416.529,371.727 418.173,371.228C419.817,370.68 421.66,370.182 423.703,369.734C425.795,369.286 427.887,368.912 429.979,368.613C432.071,368.314 433.964,368.165 435.658,368.165C438.945,368.165 441.76,368.563 444.101,369.36C446.492,370.108 448.31,371.453 449.556,373.395C450.851,375.288 451.498,377.978 451.498,381.465ZM438.198,375.637C439.693,374.242 441.635,372.997 444.026,371.901C446.467,370.755 449.033,369.859 451.723,369.211C454.413,368.514 456.878,368.165 459.12,368.165C462.408,368.165 465.222,368.563 467.563,369.36C469.954,370.108 471.773,371.453 473.018,373.395C474.313,375.288 474.961,377.978 474.961,381.465L474.961,407.393L461.362,407.393L461.362,384.753C461.362,383.756 461.212,382.91 460.913,382.212C460.664,381.465 460.266,380.892 459.718,380.494C459.22,380.045 458.572,379.722 457.775,379.522C457.028,379.323 456.156,379.223 455.16,379.223C454.213,379.223 453.391,379.373 452.694,379.672C452.046,379.921 451.648,380.17 451.498,380.419L438.198,375.637Z" style="fill:rgb(36,36,36);fill-rule:nonzero;"/>
            <path id="path838" d="M502.383,408.514C500.191,408.514 497.999,408.364 495.807,408.065C493.616,407.767 491.623,407.244 489.83,406.496C488.036,405.699 486.592,404.603 485.496,403.209C484.45,401.764 483.927,399.896 483.927,397.605L483.927,356.135L497.227,356.135L497.227,376.982L494.985,372.798C495.832,371.502 496.953,370.531 498.348,369.883C499.743,369.186 501.137,368.713 502.532,368.464C503.977,368.215 505.147,368.09 506.044,368.09C511.523,368.09 515.733,369.784 518.672,373.171C521.661,376.509 523.155,381.565 523.155,388.339C523.155,391.926 522.682,395.014 521.735,397.605C520.839,400.145 519.494,402.212 517.7,403.806C515.907,405.4 513.715,406.596 511.125,407.393C508.585,408.14 505.67,408.514 502.383,408.514ZM502.383,397.38C503.977,397.38 505.322,397.082 506.418,396.484C507.514,395.836 508.335,394.915 508.883,393.719C509.431,392.524 509.705,391.054 509.705,389.311C509.705,386.421 509.332,384.23 508.585,382.735C507.887,381.191 506.966,380.145 505.82,379.597C504.674,378.999 503.454,378.7 502.159,378.7C501.411,378.7 500.565,378.8 499.618,378.999C498.721,379.149 497.924,379.423 497.227,379.821L497.227,394.018C497.227,394.815 497.401,395.463 497.75,395.961C498.149,396.459 498.721,396.832 499.469,397.082C500.266,397.281 501.237,397.38 502.383,397.38Z" style="fill:rgb(36,36,36);fill-rule:nonzero;"/>
            <path id="path840" d="M547.738,408.514C543.803,408.514 540.316,407.717 537.277,406.123C534.238,404.529 531.872,402.287 530.179,399.398C528.485,396.459 527.638,393.047 527.638,389.161C527.638,382.486 529.332,377.281 532.719,373.545C536.156,369.759 541.113,367.866 547.588,367.866C551.823,367.866 555.26,368.763 557.9,370.556C560.54,372.349 562.483,375.064 563.728,378.7C565.023,382.287 565.646,386.77 565.596,392.15L537.277,392.15L535.484,384.155L553.94,384.155L552.52,388.788C552.47,384.653 552.022,381.814 551.175,380.27C550.378,378.676 548.958,377.879 546.916,377.879C545.969,377.879 545.048,378.202 544.151,378.85C543.255,379.448 542.532,380.444 541.984,381.839C541.436,383.184 541.162,385.002 541.162,387.293C541.162,390.531 541.935,393.022 543.479,394.765C545.023,396.509 547.663,397.38 551.399,397.38C552.644,397.38 553.915,397.206 555.21,396.857C556.505,396.509 557.725,396.135 558.871,395.737C560.017,395.288 560.963,394.964 561.711,394.765L561.711,406.048C559.967,406.696 557.975,407.268 555.733,407.767C553.491,408.265 550.826,408.514 547.738,408.514Z" style="fill:rgb(36,36,36);fill-rule:nonzero;"/>
            <path id="path842" d="M572.321,407.393L572.321,373.769C573.068,373.022 574.338,372.225 576.131,371.378C577.974,370.481 580.042,369.709 582.333,369.062C584.625,368.414 586.866,368.09 589.058,368.09C592.246,368.09 594.712,368.314 596.455,368.763C598.199,369.211 599.494,369.784 600.341,370.481L600.341,380.12C599.643,379.921 598.622,379.746 597.277,379.597C595.982,379.398 594.587,379.273 593.093,379.223C591.598,379.124 590.204,379.074 588.909,379.074C587.613,379.074 586.617,379.124 585.92,379.223L585.92,407.393L572.321,407.393Z" style="fill:rgb(36,36,36);fill-rule:nonzero;"/>
            <path id="path844" d="M616.704,408.514C614.014,408.514 611.673,408.215 609.681,407.617C607.738,407.019 605.994,406.446 604.45,405.899L604.45,394.392C605.247,395.039 606.318,395.737 607.663,396.484C609.008,397.231 610.527,397.879 612.221,398.427C613.915,398.925 615.683,399.174 617.526,399.174C618.971,399.174 619.867,398.974 620.216,398.576C620.615,398.128 620.814,397.654 620.814,397.156C620.814,396.559 620.44,396.06 619.693,395.662C618.946,395.214 617.975,394.84 616.779,394.541C615.584,394.242 614.313,393.993 612.968,393.794C611.872,393.595 610.777,393.246 609.681,392.748C608.635,392.2 607.688,391.453 606.841,390.506C605.994,389.56 605.322,388.389 604.824,386.994C604.326,385.6 604.077,383.981 604.077,382.138C604.077,379.497 604.575,377.306 605.571,375.562C606.617,373.819 607.962,372.424 609.606,371.378C611.3,370.332 613.093,369.585 614.986,369.136C616.928,368.688 618.772,368.489 620.515,368.538C624.002,368.688 626.692,369.062 628.585,369.659C630.478,370.207 632.122,370.979 633.516,371.976L633.591,382.063C631.997,381.166 630.303,380.27 628.51,379.373C626.767,378.476 624.799,378.028 622.607,378.028C620.764,378.028 619.569,378.277 619.021,378.775C618.523,379.273 618.274,379.871 618.274,380.568C618.274,381.316 618.498,381.913 618.946,382.362C619.444,382.76 620.067,383.084 620.814,383.333C621.611,383.582 622.483,383.831 623.429,384.08C624.675,384.379 625.945,384.728 627.24,385.126C628.585,385.475 629.83,386.048 630.976,386.845C632.171,387.642 633.118,388.763 633.815,390.207C634.563,391.602 634.936,393.495 634.936,395.886C634.837,399.074 633.94,401.59 632.246,403.433C630.602,405.276 628.411,406.596 625.671,407.393C622.931,408.14 619.942,408.514 616.704,408.514Z" style="fill:rgb(36,36,36);fill-rule:nonzero;"/>
        </g>
    </g>
</svg>
