<?xml version="1.0" encoding="UTF-8" standalone="no"?>
<!DOCTYPE svg PUBLIC "-//W3C//DTD SVG 1.1//EN" "http://www.w3.org/Graphics/SVG/1.1/DTD/svg11.dtd">
<svg width="100%" height="100%" viewBox="0 0 358 358" version="1.1" xmlns="http://www.w3.org/2000/svg" xmlns:xlink="http://www.w3.org/1999/xlink" xml:space="preserve" xmlns:serif="http://www.serif.com/" style="fill-rule:evenodd;clip-rule:evenodd;stroke-linecap:round;stroke-linejoin:round;stroke-miterlimit:2;">
    <g id="Layer-1" serif:id="Layer 1" transform="matrix(1,0,0,1,-148.666,-148.666)">
        <rect id="rect846" x="155.753" y="155.753" width="94.353" height="94.353" style="fill:none;stroke:rgb(36,36,36);stroke-width:14.17px;"/>
        <rect id="rect846-7" x="155.753" y="280.106" width="94.353" height="94.353" style="fill:none;stroke:rgb(36,36,36);stroke-width:14.17px;"/>
        <rect id="rect846-7-5" x="155.753" y="404.458" width="94.353" height="94.353" style="fill:none;stroke:rgb(36,36,36);stroke-width:14.17px;"/>
        <rect id="rect846-6" x="280.106" y="155.753" width="94.353" height="94.353" style="fill:none;stroke:rgb(36,36,36);stroke-width:14.17px;"/>
        <rect id="rect846-7-2" x="280.106" y="280.106" width="94.353" height="94.353" style="fill:none;stroke:rgb(36,36,36);stroke-width:14.17px;"/>
        <rect id="rect846-7-5-9" x="280.106" y="404.458" width="94.353" height="94.353" style="fill:none;stroke:rgb(36,36,36);stroke-width:14.17px;"/>
        <rect id="rect846-1" x="404.458" y="155.753" width="94.353" height="94.353" style="fill:none;stroke:rgb(36,36,36);stroke-width:14.17px;"/>
        <rect id="rect846-7-27" x="404.458" y="280.106" width="94.353" height="94.353" style="fill:none;stroke:rgb(36,36,36);stroke-width:14.17px;"/>
        <rect id="rect846-7-5-0" x="404.458" y="404.458" width="94.353" height="94.353" style="fill:none;stroke:rgb(36,36,36);stroke-width:14.17px;"/>
        <g id="text7634">
            <path id="path915" d="M204.889,217.809C204.089,217.809 202.916,217.729 201.369,217.569C199.823,217.409 198.223,217.063 196.569,216.529C194.916,215.943 193.503,215.063 192.329,213.889L194.729,210.129L194.729,231.089L183.049,231.089L183.049,184.689C183.049,182.929 183.556,181.436 184.569,180.209C185.583,178.983 186.969,177.969 188.729,177.169C190.489,176.369 192.516,175.783 194.809,175.409C197.156,174.983 199.663,174.769 202.329,174.769C206.383,174.769 209.929,175.463 212.969,176.849C216.063,178.183 218.463,180.449 220.169,183.649C221.929,186.849 222.809,191.223 222.809,196.769C222.809,200.929 222.089,204.609 220.649,207.809C219.209,210.956 217.156,213.409 214.489,215.169C211.876,216.929 208.676,217.809 204.889,217.809ZM201.369,208.209C203.503,208.209 205.263,207.836 206.649,207.089C208.036,206.343 209.076,205.116 209.769,203.409C210.516,201.649 210.889,199.303 210.889,196.369C210.889,193.916 210.623,191.836 210.089,190.129C209.556,188.423 208.623,187.116 207.289,186.209C206.009,185.249 204.196,184.769 201.849,184.769C199.289,184.769 197.449,185.036 196.329,185.569C195.263,186.049 194.729,186.689 194.729,187.489L194.729,206.529C195.743,207.116 196.863,207.543 198.089,207.809C199.316,208.076 200.409,208.209 201.369,208.209Z" style="fill:rgb(36,36,36);fill-rule:nonzero;"/>
        </g>
        <g id="text7634-4">
            <path id="path918" d="M321.362,230.529L321.362,190.609L333.282,190.609L333.362,230.529L321.362,230.529ZM321.122,184.529L321.122,175.329L333.442,175.329L333.442,184.529L321.122,184.529Z" style="fill:rgb(36,36,36);fill-rule:nonzero;"/>
        </g>
        <g id="text7634-4-4">
            <path id="path921" d="M450.715,224.369C448.261,224.369 445.941,224.129 443.755,223.649C441.621,223.223 439.728,222.503 438.075,221.489C436.475,220.423 435.221,219.009 434.315,217.249C433.408,215.436 432.955,213.196 432.955,210.529C432.955,208.023 433.461,205.836 434.475,203.969C435.541,202.103 437.141,200.663 439.275,199.649C441.408,198.636 444.101,198.129 447.355,198.129C449.168,198.129 450.928,198.316 452.635,198.689C454.341,199.063 455.861,199.569 457.195,200.209C458.581,200.849 459.675,201.543 460.475,202.289L460.955,208.049C459.888,207.409 458.608,206.903 457.115,206.529C455.621,206.156 454.021,205.969 452.315,205.969C449.701,205.969 447.781,206.369 446.555,207.169C445.381,207.916 444.795,209.116 444.795,210.769C444.795,211.783 445.088,212.689 445.675,213.489C446.261,214.289 447.035,214.903 447.995,215.329C449.008,215.756 450.048,215.969 451.115,215.969C453.835,215.969 455.728,215.783 456.795,215.409C457.915,215.036 458.475,214.289 458.475,213.169L458.475,198.289C458.475,195.836 457.675,194.076 456.075,193.009C454.528,191.889 452.315,191.329 449.435,191.329C447.088,191.329 444.715,191.756 442.315,192.609C439.968,193.409 438.048,194.396 436.555,195.569L436.555,185.009C437.941,184.156 440.075,183.356 442.955,182.609C445.888,181.863 449.168,181.489 452.795,181.489C454.075,181.489 455.488,181.596 457.035,181.809C458.581,182.023 460.128,182.423 461.675,183.009C463.221,183.543 464.635,184.343 465.915,185.409C467.248,186.476 468.315,187.836 469.115,189.489C469.915,191.143 470.315,193.196 470.315,195.649L470.235,214.769C470.235,217.063 469.461,218.929 467.915,220.369C466.368,221.756 464.128,222.769 461.195,223.409C458.315,224.049 454.821,224.369 450.715,224.369Z" style="fill:rgb(36,36,36);fill-rule:nonzero;"/>
        </g>
        <g id="text7634-4-4-8">
            <path id="path933" d="M202.009,473.075C199.556,473.075 197.236,472.835 195.049,472.355C192.916,471.928 191.023,471.208 189.369,470.195C187.769,469.128 186.516,467.715 185.609,465.955C184.703,464.141 184.249,461.901 184.249,459.235C184.249,456.728 184.756,454.541 185.769,452.675C186.836,450.808 188.436,449.368 190.569,448.355C192.703,447.341 195.396,446.835 198.649,446.835C200.463,446.835 202.223,447.021 203.929,447.395C205.636,447.768 207.156,448.275 208.489,448.915C209.876,449.555 210.969,450.248 211.769,450.995L212.249,456.755C211.183,456.115 209.903,455.608 208.409,455.235C206.916,454.861 205.316,454.675 203.609,454.675C200.996,454.675 199.076,455.075 197.849,455.875C196.676,456.621 196.089,457.821 196.089,459.475C196.089,460.488 196.383,461.395 196.969,462.195C197.556,462.995 198.329,463.608 199.289,464.035C200.303,464.461 201.343,464.675 202.409,464.675C205.129,464.675 207.023,464.488 208.089,464.115C209.209,463.741 209.769,462.995 209.769,461.875L209.769,446.995C209.769,444.541 208.969,442.781 207.369,441.715C205.823,440.595 203.609,440.035 200.729,440.035C198.383,440.035 196.009,440.461 193.609,441.315C191.263,442.115 189.343,443.101 187.849,444.275L187.849,433.715C189.236,432.861 191.369,432.061 194.249,431.315C197.183,430.568 200.463,430.195 204.089,430.195C205.369,430.195 206.783,430.301 208.329,430.515C209.876,430.728 211.423,431.128 212.969,431.715C214.516,432.248 215.929,433.048 217.209,434.115C218.543,435.181 219.609,436.541 220.409,438.195C221.209,439.848 221.609,441.901 221.609,444.355L221.529,463.475C221.529,465.768 220.756,467.635 219.209,469.075C217.663,470.461 215.423,471.475 212.489,472.115C209.609,472.755 206.116,473.075 202.009,473.075Z" style="fill:rgb(36,36,36);fill-rule:nonzero;"/>
        </g>
        <g id="text7634-4-4-3">
            <path id="path930" d="M183.849,311.042C184.863,310.509 186.196,309.975 187.849,309.442C189.503,308.855 191.316,308.349 193.289,307.922C195.263,307.495 197.236,307.149 199.209,306.882C201.236,306.615 203.103,306.482 204.809,306.482C208.436,306.482 211.529,306.962 214.089,307.922C216.649,308.829 218.596,310.322 219.929,312.402C221.316,314.482 222.009,317.309 222.009,320.882L222.009,348.082L210.089,348.082L210.089,323.282C210.089,322.269 209.929,321.335 209.609,320.482C209.343,319.629 208.916,318.909 208.329,318.322C207.743,317.682 206.943,317.202 205.929,316.882C204.916,316.509 203.689,316.322 202.249,316.322C201.023,316.322 199.796,316.482 198.569,316.802C197.343,317.069 196.409,317.362 195.769,317.682L195.769,348.082L183.849,348.082L183.849,311.042Z" style="fill:rgb(36,36,36);fill-rule:nonzero;"/>
        </g>
        <g id="text7634-4-4-3-7">
            <path id="path927" d="M327.202,348.802C320.375,348.802 315.229,346.989 311.762,343.362C308.349,339.682 306.642,334.295 306.642,327.202C306.642,319.575 308.375,314.109 311.842,310.802C315.362,307.442 320.482,305.762 327.202,305.762C331.735,305.762 335.522,306.535 338.562,308.082C341.655,309.575 343.975,311.895 345.522,315.042C347.122,318.189 347.922,322.242 347.922,327.202C347.922,334.295 346.135,339.682 342.562,343.362C338.989,346.989 333.869,348.802 327.202,348.802ZM327.202,339.282C329.175,339.282 330.802,338.829 332.082,337.922C333.415,336.962 334.402,335.602 335.042,333.842C335.735,332.029 336.082,329.815 336.082,327.202C336.082,324.215 335.735,321.869 335.042,320.162C334.402,318.402 333.415,317.149 332.082,316.402C330.749,315.602 329.122,315.202 327.202,315.202C325.175,315.202 323.522,315.602 322.242,316.402C320.962,317.202 320.002,318.482 319.362,320.242C318.775,321.949 318.482,324.269 318.482,327.202C318.482,331.255 319.175,334.295 320.562,336.322C322.002,338.295 324.215,339.282 327.202,339.282Z" style="fill:rgb(36,36,36);fill-rule:nonzero;"/>
        </g>
        <g id="text7634-4-4-3-7-3">
            <path id="path936" d="M328.722,480.795C325.575,480.795 322.669,480.448 320.002,479.755C317.389,479.061 315.122,477.915 313.202,476.315C311.282,474.661 309.762,472.421 308.642,469.595C307.575,466.768 307.042,463.248 307.042,459.035C307.042,452.475 308.642,447.301 311.842,443.515C315.095,439.728 319.949,437.835 326.402,437.835C327.255,437.835 328.375,437.915 329.762,438.075C331.149,438.181 332.589,438.501 334.082,439.035C335.575,439.568 336.909,440.475 338.082,441.755L335.682,445.435L335.682,422.475L347.522,422.475L347.522,469.035C347.522,471.008 346.989,472.741 345.922,474.235C344.855,475.675 343.415,476.875 341.602,477.835C339.842,478.795 337.842,479.515 335.602,479.995C333.362,480.528 331.069,480.795 328.722,480.795ZM329.202,470.795C331.122,470.795 332.669,470.555 333.842,470.075C335.069,469.541 335.682,468.768 335.682,467.755L335.682,449.115C334.722,448.581 333.682,448.181 332.562,447.915C331.495,447.595 330.455,447.435 329.442,447.435C327.202,447.435 325.309,447.808 323.762,448.555C322.215,449.301 321.042,450.555 320.242,452.315C319.495,454.075 319.122,456.448 319.122,459.435C319.122,461.781 319.442,463.808 320.082,465.515C320.722,467.168 321.762,468.475 323.202,469.435C324.695,470.341 326.695,470.795 329.202,470.795Z" style="fill:rgb(36,36,36);fill-rule:nonzero;"/>
        </g>
        <g id="text7634-4-4-3-7-6">
            <path id="path924" d="M453.595,342.162C452.795,342.162 451.621,342.082 450.075,341.922C448.528,341.762 446.928,341.415 445.275,340.882C443.621,340.295 442.208,339.415 441.035,338.242L443.435,334.482L443.435,355.442L431.755,355.442L431.755,309.042C431.755,307.282 432.261,305.789 433.275,304.562C434.288,303.335 435.675,302.322 437.435,301.522C439.195,300.722 441.221,300.135 443.515,299.762C445.861,299.335 448.368,299.122 451.035,299.122C455.088,299.122 458.635,299.815 461.675,301.202C464.768,302.535 467.168,304.802 468.875,308.002C470.635,311.202 471.515,315.575 471.515,321.122C471.515,325.282 470.795,328.962 469.355,332.162C467.915,335.308 465.861,337.762 463.195,339.522C460.581,341.282 457.381,342.162 453.595,342.162ZM450.075,332.562C452.208,332.562 453.968,332.189 455.355,331.442C456.741,330.695 457.781,329.469 458.475,327.762C459.221,326.002 459.595,323.655 459.595,320.722C459.595,318.269 459.328,316.189 458.795,314.482C458.261,312.775 457.328,311.469 455.995,310.562C454.715,309.602 452.901,309.122 450.555,309.122C447.995,309.122 446.155,309.389 445.035,309.922C443.968,310.402 443.435,311.042 443.435,311.842L443.435,330.882C444.448,331.469 445.568,331.895 446.795,332.162C448.021,332.429 449.115,332.562 450.075,332.562Z" style="fill:rgb(36,36,36);fill-rule:nonzero;"/>
        </g>
    </g>
</svg>
