<?xml version="1.0" encoding="UTF-8" standalone="no"?>
<!DOCTYPE svg PUBLIC "-//W3C//DTD SVG 1.1//EN" "http://www.w3.org/Graphics/SVG/1.1/DTD/svg11.dtd">
<svg width="100%" height="100%" viewBox="0 0 344 56" version="1.1" xmlns="http://www.w3.org/2000/svg" xmlns:xlink="http://www.w3.org/1999/xlink" xml:space="preserve" xmlns:serif="http://www.serif.com/" style="fill-rule:evenodd;clip-rule:evenodd;stroke-linejoin:round;stroke-miterlimit:2;">
    <path d="M42.567,35.786C43.31,34.941 44.183,34.174 45.186,33.486C49.065,30.826 54.661,29.496 61.973,29.496L69.293,29.496L69.67,27.556C69.672,27.51 69.673,27.465 69.673,27.422C69.673,25.875 68.94,24.709 67.475,23.924C66.011,23.139 63.837,22.746 60.954,22.746C58.352,22.746 55.833,23.016 53.395,23.555C50.958,24.094 48.602,24.902 46.329,25.98L48.227,16.383C50.852,15.727 53.542,15.229 56.296,14.889C59.05,14.549 61.903,14.379 64.856,14.379C68.135,14.379 70.941,14.695 73.274,15.328L84.707,15.328L83.546,21.094C85.867,18.82 88.199,17.133 90.543,16.031C92.886,14.93 95.336,14.379 97.89,14.379C101.523,14.379 104.324,15.328 106.293,17.227C107.358,18.254 108.135,19.508 108.624,20.989C110.61,19.088 112.872,17.588 115.409,16.488C118.655,15.082 122.247,14.379 126.185,14.379C132.044,14.379 136.65,15.867 140.001,18.844C140.948,19.685 141.761,20.612 142.44,21.624C144.219,19.523 146.171,17.87 148.295,16.664C150.978,15.141 153.855,14.379 156.925,14.379C159.621,14.379 161.912,14.924 163.798,16.014C165.685,17.104 167.285,18.797 168.597,21.094L172.675,0L185.367,0L174.714,54.703L162.023,54.703L163.183,49.008C161.261,51.305 159.246,52.998 157.136,54.088C155.027,55.178 152.718,55.723 150.211,55.723C145.781,55.723 142.277,54.316 139.699,51.504C138.903,50.636 138.231,49.672 137.681,48.61C135.551,50.761 133.114,52.428 130.368,53.613C127.111,55.02 123.478,55.723 119.47,55.723C113.681,55.723 109.116,54.234 105.777,51.258C105.432,50.95 105.104,50.631 104.795,50.301L103.937,54.703L91.316,54.703L95.289,34.172C95.57,32.836 95.787,31.705 95.939,30.779C96.091,29.854 96.168,29.121 96.168,28.582C96.168,27.082 95.752,25.922 94.919,25.102C94.087,24.281 92.91,23.871 91.386,23.871C88.785,23.871 86.552,24.885 84.689,26.912C83.143,28.594 81.989,30.812 81.225,33.566L77.091,54.703L64.386,54.703L65.512,48.921C63.463,51.238 61.3,52.948 59.02,54.053C56.723,55.166 54.227,55.723 51.532,55.723C47.805,55.723 44.846,54.756 42.655,52.822C41.428,51.74 40.545,50.446 40.005,48.941L38.883,54.703L26.191,54.703L27.352,49.008C25.43,51.305 23.414,52.998 21.305,54.088C19.195,55.178 16.887,55.723 14.379,55.723C9.949,55.723 6.445,54.316 3.867,51.504C1.289,48.691 -0,44.859 -0,40.008C-0,36.984 0.451,34.043 1.354,31.184C2.256,28.324 3.551,25.723 5.238,23.379C7.371,20.426 9.779,18.187 12.463,16.664C15.146,15.141 18.023,14.379 21.094,14.379C23.789,14.379 26.08,14.924 27.967,16.014C29.854,17.104 31.453,18.797 32.766,21.094L36.844,-0L49.535,-0L42.567,35.786ZM196.33,21.74C198.772,19.332 201.544,17.523 204.646,16.313C207.951,15.023 211.76,14.379 216.072,14.379C218.064,14.379 220.045,14.561 222.014,14.924C223.982,15.287 225.939,15.832 227.885,16.559L225.881,26.824C224.193,25.699 222.529,24.844 220.889,24.258C219.248,23.672 217.643,23.379 216.072,23.379C211.971,23.379 208.619,24.756 206.018,27.51C203.416,30.264 202.115,33.785 202.115,38.074C202.115,40.816 202.924,42.943 204.541,44.455C206.158,45.967 208.443,46.723 211.396,46.723C213.365,46.723 215.299,46.43 217.197,45.844C217.553,45.734 217.905,45.614 218.254,45.485C217.357,46.787 216.816,48.306 216.695,49.862C216.633,51.402 216.895,53.09 217.964,54.384C216.775,54.707 215.582,54.972 214.385,55.178C212.275,55.541 210.154,55.723 208.021,55.723C201.834,55.723 197.07,54.334 193.73,51.557C192.682,50.685 191.798,49.698 191.079,48.597L189.885,54.703L177.264,54.703L184.928,15.328L197.584,15.328L196.33,21.74ZM270.993,20.802C272.935,19.029 275.128,17.614 277.571,16.559C280.935,15.105 284.667,14.379 288.769,14.379C292.987,14.379 296.516,15.27 299.357,17.053L299.013,15.328L310.615,15.328L315.712,42.82L330.548,15.328L343.31,15.328L320.177,54.703L306.853,54.703L303.626,38.496L275.444,38.496L275.374,39.727C275.374,42.281 276.142,44.191 277.677,45.457C279.212,46.723 281.515,47.355 284.585,47.355C287.234,47.355 290.028,46.957 292.97,46.16C295.911,45.363 298.999,44.18 302.234,42.609L300.3,52.383C297.23,53.508 294.177,54.346 291.142,54.896C288.107,55.447 285.019,55.723 281.878,55.723C275.737,55.723 270.997,54.305 267.657,51.469C266.827,50.763 266.099,49.986 265.475,49.136L264.391,54.703L251.7,54.703L252.86,49.008C250.938,51.305 248.923,52.998 246.813,54.088C244.704,55.178 242.395,55.723 239.887,55.723C236.257,55.723 233.249,54.778 230.862,52.889C231.626,51.838 232.135,50.705 232.457,49.687C233.316,45.211 231.355,41.611 225.801,41.611C225.72,41.612 225.639,41.613 225.558,41.615C225.525,41.092 225.509,40.557 225.509,40.008C225.509,36.984 225.96,34.043 226.862,31.184C227.764,28.324 229.059,25.723 230.747,23.379C232.88,20.426 235.288,18.187 237.971,16.664C240.655,15.141 243.532,14.379 246.602,14.379C249.298,14.379 251.589,14.924 253.475,16.014C255.362,17.104 256.962,18.797 258.274,21.094L262.352,0L275.044,0L270.993,20.802ZM225.677,42.432C230.62,42.432 232.365,45.637 231.6,49.62C230.842,52.016 228.919,55.136 224.712,55.705C218.575,56 217.458,52.607 217.571,49.776C217.867,45.991 220.948,42.455 225.677,42.432ZM67.835,36.984L61.833,36.984C58.692,36.984 56.319,37.471 54.714,38.443C53.108,39.416 52.305,40.852 52.305,42.75C52.305,44.18 52.78,45.305 53.729,46.125C54.679,46.945 55.985,47.355 57.649,47.355C60.227,47.355 62.384,46.576 64.118,45.018C65.64,43.65 66.72,41.79 67.357,39.438L67.835,36.984ZM125.165,23.379C121.907,23.379 119.224,24.855 117.114,27.809C115.005,30.762 113.95,34.523 113.95,39.094C113.95,41.578 114.519,43.471 115.655,44.771C116.792,46.072 118.45,46.723 120.63,46.723C123.888,46.723 126.572,45.24 128.681,42.275C130.79,39.311 131.845,35.531 131.845,30.938C131.845,28.477 131.277,26.602 130.14,25.313C129.003,24.023 127.345,23.379 125.165,23.379ZM19.512,46.582C22.746,46.582 25.377,45.094 27.404,42.117C29.432,39.141 30.445,35.25 30.445,30.445C30.445,28.266 29.877,26.566 28.74,25.348C27.604,24.129 26.016,23.52 23.977,23.52C20.789,23.52 18.164,24.99 16.102,27.932C14.039,30.873 13.008,34.641 13.008,39.234C13.008,41.625 13.564,43.447 14.678,44.701C15.791,45.955 17.402,46.582 19.512,46.582ZM155.343,46.582C158.578,46.582 161.209,45.094 163.236,42.117C165.263,39.141 166.277,35.25 166.277,30.445C166.277,28.266 165.709,26.566 164.572,25.348C163.435,24.129 161.847,23.52 159.808,23.52C156.621,23.52 153.996,24.99 151.933,27.932C149.871,30.873 148.839,34.641 148.839,39.234C148.839,41.625 149.396,43.447 150.509,44.701C151.623,45.955 153.234,46.582 155.343,46.582ZM245.02,46.582C248.255,46.582 250.885,45.094 252.913,42.117C254.94,39.141 255.954,35.25 255.954,30.445C255.954,28.266 255.385,26.566 254.249,25.348C253.112,24.129 251.524,23.52 249.485,23.52C246.298,23.52 243.673,24.99 241.61,27.932C239.548,30.873 238.516,34.641 238.516,39.234C238.516,41.625 239.073,43.447 240.186,44.701C241.3,45.955 242.911,46.582 245.02,46.582ZM293.444,30.727C293.515,30.422 293.567,30.111 293.603,29.795C293.638,29.479 293.655,29.168 293.655,28.863C293.655,26.988 293.093,25.5 291.968,24.398C290.843,23.297 289.319,22.746 287.398,22.746C284.937,22.746 282.845,23.42 281.122,24.768C279.4,26.115 278.081,28.102 277.167,30.727L293.444,30.727ZM187.881,0L200.537,0L198.534,10.266L185.842,10.266L187.881,0Z" style="fill:white;fill-rule:nonzero;"/>
</svg>
