<?xml version="1.0" encoding="UTF-8" standalone="no"?>
<!DOCTYPE svg PUBLIC "-//W3C//DTD SVG 1.1//EN" "http://www.w3.org/Graphics/SVG/1.1/DTD/svg11.dtd">
<svg width="100%" height="100%" viewBox="0 0 276 276" version="1.1" xmlns="http://www.w3.org/2000/svg" xmlns:xlink="http://www.w3.org/1999/xlink" xml:space="preserve" xmlns:serif="http://www.serif.com/" style="fill-rule:evenodd;clip-rule:evenodd;stroke-linejoin:round;stroke-miterlimit:2;">
    <g id="Layer-1" serif:id="Layer 1" transform="matrix(1,0,0,1,-194.994,-213.191)">
        <path id="path10181-1" d="M332.936,213.191C257.263,213.192 194.994,275.46 194.994,351.133C194.994,426.805 257.263,489.074 332.936,489.074L332.937,489.074C408.609,489.074 470.878,426.805 470.878,351.133C470.878,275.46 408.609,213.191 332.937,213.191L332.936,213.191ZM299.209,306.839L299.209,309.892C296.128,309.892 293.947,310.704 292.669,312.332C291.448,313.902 290.837,316.285 290.837,319.482L290.837,336.136C290.837,338.403 290.635,340.35 290.228,341.978C289.821,343.547 288.977,344.826 287.698,345.814C286.478,346.802 284.588,347.558 282.031,348.082L282.031,348.43C284.588,348.953 286.478,349.738 287.698,350.784C288.977,351.772 289.821,353.051 290.228,354.621C290.635,356.19 290.837,358.137 290.837,360.462L290.837,377.116C290.837,380.371 291.448,382.813 292.669,384.44C293.947,386.068 296.128,386.882 299.209,386.882L299.209,389.846C295.547,389.846 292.553,389.411 290.228,388.539C287.903,387.725 286.158,386.213 284.996,384.004C283.891,381.853 283.339,378.801 283.339,374.849L283.339,358.283C283.339,356.132 283.107,354.475 282.642,353.313C282.177,352.15 281.392,351.307 280.288,350.784C279.183,350.203 277.642,349.767 275.666,349.476L275.666,347.034C277.642,346.744 279.183,346.337 280.288,345.814C281.392,345.233 282.177,344.36 282.642,343.198C283.107,342.035 283.339,340.38 283.339,338.229L283.339,321.75C283.339,317.797 283.891,314.745 284.996,312.594C286.158,310.444 287.903,308.961 290.228,308.147C292.553,307.275 295.547,306.839 299.209,306.839ZM433.572,306.839C437.234,306.839 440.226,307.275 442.551,308.147C444.876,308.961 446.591,310.444 447.696,312.594C448.858,314.745 449.44,317.797 449.44,321.75L449.44,338.229C449.44,340.38 449.673,342.035 450.138,343.198C450.603,344.36 451.387,345.233 452.492,345.814C453.654,346.337 455.195,346.744 457.113,347.034L457.113,349.476C455.195,349.767 453.654,350.203 452.492,350.784C451.387,351.307 450.603,352.15 450.138,353.313C449.673,354.475 449.44,356.132 449.44,358.283L449.44,374.849C449.44,378.801 448.858,381.853 447.696,384.004C446.591,386.213 444.876,387.725 442.551,388.539C440.226,389.411 437.234,389.846 433.572,389.846L433.572,386.882C436.653,386.882 438.802,386.068 440.023,384.44C441.302,382.813 441.942,380.371 441.942,377.116L441.942,360.462C441.942,358.137 442.144,356.19 442.551,354.621C442.958,353.051 443.802,351.772 445.081,350.784C446.36,349.738 448.249,348.953 450.749,348.43L450.749,348.082C448.249,347.558 446.36,346.802 445.081,345.814C443.802,344.826 442.958,343.547 442.551,341.978C442.144,340.35 441.942,338.403 441.942,336.136L441.942,319.482C441.942,316.285 441.302,313.902 440.023,312.332C438.802,310.704 436.653,309.892 433.572,309.892L433.572,306.839ZM321.355,309.019C322.982,309.019 324.377,309.601 325.54,310.763C326.76,311.926 327.371,313.321 327.371,314.948C327.371,316.46 326.79,317.855 325.628,319.133C324.465,320.354 322.982,320.964 321.18,320.964C319.553,320.964 318.158,320.384 316.995,319.221C315.833,318.059 315.252,316.662 315.252,315.035C315.252,313.349 315.833,311.926 316.995,310.763C318.216,309.601 319.669,309.019 321.355,309.019ZM325.017,329.857L326.499,330.382C326.441,332.009 326.383,333.607 326.325,335.176L326.325,349.999C326.383,352.499 326.413,355.056 326.413,357.672C326.471,360.23 326.499,362.527 326.499,364.561L326.499,368.746C326.499,372.699 326.325,375.953 325.976,378.511C325.627,381.068 325.075,383.161 324.319,384.789C323.564,386.475 322.517,388.016 321.18,389.411C317.46,393.422 313.391,395.427 308.974,395.427C306.649,395.427 305.021,394.933 304.091,393.944C303.103,393.014 302.609,392.026 302.609,390.98C302.609,389.933 303.015,389.003 303.829,388.189C304.643,387.375 305.835,386.969 307.405,386.969C308.684,386.969 309.875,387.289 310.979,387.928C312.142,388.626 313.072,389.672 313.77,391.067C314.758,390.602 315.514,389.73 316.037,388.451C316.56,387.231 316.909,385.806 317.083,384.178C317.316,382.551 317.46,380.982 317.518,379.47C317.576,377.959 317.606,376.71 317.606,375.722L317.606,363.602C317.606,360.986 317.577,358.428 317.518,355.929L317.518,344.594C317.518,342.327 317.402,340.64 317.169,339.536C316.995,338.431 316.443,337.676 315.513,337.27C314.641,336.805 313.13,336.426 310.979,336.136C310.805,335.322 310.805,334.566 310.979,333.868C313.42,333.403 315.776,332.852 318.043,332.213C320.368,331.574 322.692,330.788 325.017,329.857ZM357.016,330.294C359.167,330.294 361.144,330.7 362.946,331.514C364.806,332.27 366.289,333.433 367.393,335.002C368.556,336.513 369.136,338.402 369.136,340.669C369.136,342.065 369.108,343.896 369.05,346.163C368.992,348.372 368.934,350.755 368.876,353.313C368.876,355.812 368.846,358.195 368.788,360.462C368.73,362.729 368.7,364.561 368.7,365.956C368.7,367.816 369.514,368.746 371.142,368.746C372.188,368.746 373.787,368.396 375.938,367.699C376.17,367.989 376.314,368.309 376.373,368.658C376.489,369.007 376.577,369.327 376.635,369.618C375.182,371.187 373.641,372.32 372.013,373.018C370.444,373.715 368.846,374.065 367.219,374.065C363.383,374.064 360.969,372.146 359.981,368.31C355.854,372.262 351.639,374.239 347.338,374.239C344.373,374.239 341.846,373.367 339.753,371.623C337.718,369.821 336.7,367.351 336.7,364.212C336.7,356.539 344.519,351.715 360.155,349.738L360.155,345.465C360.213,344.012 360.243,342.471 360.243,340.844C360.243,338.809 359.487,337.24 357.976,336.136C356.522,334.973 354.749,334.393 352.657,334.393C351.145,334.393 349.867,334.625 348.82,335.09C348.82,336.427 348.53,337.792 347.949,339.187C347.367,340.582 346.553,341.775 345.507,342.763C344.519,343.693 343.298,344.157 341.845,344.157C340.566,344.157 339.549,343.809 338.793,343.111C338.096,342.356 337.748,341.455 337.748,340.409C337.748,339.014 338.386,337.705 339.665,336.484C341.002,335.206 342.689,334.131 344.723,333.259C346.758,332.329 348.879,331.602 351.088,331.079C353.297,330.556 355.272,330.294 357.016,330.294ZM402.095,330.294C406.339,330.294 410.029,331.224 413.168,333.085C416.307,334.945 418.748,337.502 420.492,340.757C422.236,344.013 423.108,347.703 423.108,351.83C423.108,356.073 422.178,359.91 420.318,363.339C418.516,366.711 415.988,369.384 412.733,371.361C409.478,373.279 405.67,374.239 401.31,374.239C397.067,374.239 393.347,373.339 390.149,371.537C387.011,369.677 384.569,367.147 382.825,363.95C381.081,360.695 380.209,356.975 380.209,352.79C380.209,348.256 381.111,344.303 382.913,340.932C384.773,337.56 387.359,334.945 390.672,333.085C393.986,331.224 397.794,330.294 402.095,330.294ZM401.659,333.607C397.939,333.607 395.061,335.206 393.026,338.403C391.05,341.6 390.063,346.047 390.063,351.744C390.063,357.673 391.022,362.381 392.94,365.869C394.916,369.299 397.852,371.012 401.747,371.012C405.467,371.012 408.315,369.385 410.291,366.13C412.267,362.817 413.256,358.4 413.256,352.877C413.256,347.007 412.267,342.326 410.291,338.838C408.315,335.351 405.437,333.607 401.659,333.607ZM360.155,352.877C354.808,353.575 351.117,354.708 349.083,356.277C347.106,357.847 346.118,359.852 346.118,362.293C346.118,364.328 346.64,365.897 347.687,367.001C348.791,368.048 350.158,368.572 351.785,368.572C352.832,368.572 353.994,368.34 355.273,367.875C356.61,367.41 358.179,366.769 359.981,365.956L360.155,352.877Z" style="fill:rgb(36,36,36);fill-rule:nonzero;"/>
    </g>
</svg>
