<?xml version="1.0" encoding="UTF-8" standalone="no"?>
<!DOCTYPE svg PUBLIC "-//W3C//DTD SVG 1.1//EN" "http://www.w3.org/Graphics/SVG/1.1/DTD/svg11.dtd">
<svg width="100%" height="100%" viewBox="0 0 508 118" version="1.1" xmlns="http://www.w3.org/2000/svg" xmlns:xlink="http://www.w3.org/1999/xlink" xml:space="preserve" xmlns:serif="http://www.serif.com/" style="fill-rule:evenodd;clip-rule:evenodd;stroke-linejoin:round;stroke-miterlimit:2;">
    <g id="Layer-1" serif:id="Layer 1" transform="matrix(1,0,0,1,-66.1671,-232.61)">
        <g id="text4082">
            <path id="path12540" d="M83.28,330.792C91.692,330.792 100.201,328.561 108.805,324.1C92.935,319.766 83.152,317.599 79.456,317.599C75.759,317.599 73.082,318.109 71.425,319.129C69.832,320.148 69.035,321.55 69.035,323.335C69.035,325.056 70.31,326.713 72.859,328.306C75.472,329.963 78.946,330.792 83.28,330.792ZM133.279,327.446C142.52,329.422 149.69,330.409 154.789,330.409C159.951,330.409 164.349,329.581 167.982,327.924C171.614,326.203 173.431,324.291 173.431,322.188C173.431,320.658 172.315,319.383 170.085,318.364C167.854,317.28 164.604,316.739 160.334,316.739C153.578,316.739 147.905,317.726 143.317,319.702C138.728,321.678 135.382,324.259 133.279,327.446ZM177.446,265.401C173.112,269.416 167.758,274.866 161.385,281.749C155.076,288.568 150.455,293.476 147.523,296.471C148.16,296.535 149.148,296.567 150.487,296.567C155.713,296.567 161.353,295.228 167.408,292.552C173.526,289.875 178.912,286.688 183.564,282.991C188.281,279.295 192.2,275.471 195.323,271.519C198.51,267.504 200.103,264.19 200.103,261.577C200.103,258.454 197.841,256.893 193.316,256.893C188.791,256.893 183.501,259.729 177.446,265.401ZM169.989,252.017C169.989,247.747 166.516,245.612 159.569,245.612C155.745,245.612 151.793,246.536 147.714,248.384C143.699,250.169 140.257,252.527 137.389,255.459C134.521,258.39 132.195,261.641 130.411,265.21C128.626,268.779 127.574,272.316 127.256,275.822C128.913,275.949 130.251,276.013 131.271,276.013C136.561,276.013 141.691,275.184 146.663,273.527C151.634,271.87 155.777,269.831 159.091,267.409C162.405,264.923 165.05,262.31 167.026,259.569C169.001,256.765 169.989,254.248 169.989,252.017ZM114.637,323.048C119.289,324.195 124.834,325.534 131.271,327.063C133.374,323.622 136.943,320.849 141.978,318.746C147.077,316.579 153.514,315.496 161.29,315.496C165.878,315.496 169.511,316.197 172.188,317.599C174.929,319.001 176.299,320.69 176.299,322.666C176.299,325.088 174.227,327.223 170.085,329.071C166.006,330.919 160.652,331.843 154.024,331.843C147.459,331.843 140.13,331.079 132.036,329.549C131.398,331.079 131.08,332.736 131.08,334.52C131.08,338.663 133.087,342.2 137.103,345.132C141.182,348.127 146.822,349.625 154.024,349.625L154.406,350.39C153.259,350.517 152.399,350.581 151.825,350.581C145.006,350.581 139.525,348.924 135.382,345.61C131.303,342.36 129.263,338.504 129.263,334.042C129.263,332.322 129.582,330.728 130.219,329.262C123.91,327.924 117.6,326.426 111.291,324.769C101.603,329.613 91.947,332.035 82.324,332.035C77.544,332.035 73.656,331.079 70.66,329.167C67.665,327.318 66.167,325.343 66.167,323.239C66.167,321.136 67.314,319.447 69.609,318.173C71.903,316.834 75.313,316.165 79.838,316.165C84.427,316.165 95.134,318.236 111.96,322.379C120.755,317.28 130.729,308.931 141.883,297.332C136.338,296.121 132.163,293.699 129.359,290.066C126.555,286.37 125.153,282.004 125.153,276.969L125.153,276.778C119.926,276.204 116.039,274.706 113.489,272.284C111.004,269.862 109.761,266.867 109.761,263.298C109.761,257.243 112.884,251.061 119.13,244.751C125.376,238.378 132.801,234.331 141.405,232.61L141.691,233.471C133.087,235.255 125.854,239.111 119.99,245.038C114.127,250.902 111.195,256.701 111.195,262.437C111.195,265.815 112.342,268.683 114.637,271.042C116.931,273.336 120.436,274.866 125.153,275.63C125.344,271.806 126.332,268.046 128.116,264.349C129.901,260.589 132.259,257.179 135.191,254.12C138.186,250.997 141.946,248.48 146.471,246.568C150.997,244.656 155.522,243.7 160.047,243.7C168.332,243.7 172.475,246.281 172.475,251.443C172.475,253.929 171.423,256.67 169.32,259.665C167.217,262.597 164.381,265.369 160.812,267.982C157.306,270.532 152.845,272.699 147.427,274.483C142.074,276.204 136.433,277.064 130.506,277.064C128.977,277.064 127.861,277.032 127.16,276.969L127.16,277.925C127.16,282.45 128.467,286.338 131.08,289.588C133.757,292.775 137.804,294.878 143.221,295.898C145.261,293.794 148.256,290.576 152.207,286.242C156.223,281.908 159.25,278.658 161.29,276.491C163.393,274.324 166.133,271.647 169.511,268.46C172.889,265.274 175.725,262.915 178.02,261.386C184.074,257.434 189.46,255.459 194.176,255.459C200.231,255.459 203.258,257.466 203.258,261.481C203.258,264.413 201.601,267.982 198.287,272.189C195.036,276.395 190.926,280.41 185.954,284.234C180.983,288.058 175.152,291.341 168.46,294.081C161.831,296.758 155.49,298.096 149.435,298.096C147.905,298.096 146.79,298.065 146.089,298.001C134.681,309.409 124.197,317.758 114.637,323.048Z" style="fill:rgb(36,36,36);fill-rule:nonzero;"/>
            <path id="path12542" d="M203.545,311.863C203.545,311.353 203.035,311.098 202.015,311.098C200.995,311.098 198.924,312.086 195.801,314.062C192.678,315.974 190.033,318.045 187.866,320.276C192.136,319.575 195.801,318.3 198.86,316.452C201.983,314.54 203.545,313.01 203.545,311.863ZM184.807,325.343C184.807,327.191 186.082,328.115 188.631,328.115C193.475,328.115 199.498,325.502 206.7,320.276L206.891,321.71C199.37,327 192.933,329.645 187.579,329.645C183.755,329.645 181.843,328.051 181.843,324.865C181.843,321.678 184.202,318.364 188.918,314.922C193.698,311.481 198.605,309.76 203.64,309.76C205.234,309.76 206.03,310.238 206.03,311.194C206.03,312.723 204.246,314.572 200.677,316.739C197.171,318.842 192.551,320.403 186.815,321.423C185.476,322.953 184.807,324.259 184.807,325.343Z" style="fill:rgb(36,36,36);fill-rule:nonzero;"/>
            <path id="path12544" d="M245.991,306.127C251.217,305.171 256.189,304.693 260.905,304.693C265.685,304.693 270.051,305.107 274.002,305.936C275.341,303.386 276.01,301.156 276.01,299.244C276.01,295.228 273.365,293.221 268.075,293.221C263.55,293.221 259.312,294.464 255.36,296.949C251.472,299.371 248.349,302.43 245.991,306.127ZM250.58,327.828C252.938,328.72 255.87,329.167 259.375,329.167C268.617,329.167 278.4,324.641 288.725,315.591C285.665,312.15 281.491,309.6 276.201,307.943C273.97,311.959 270.592,315.783 266.067,319.415C261.542,323.048 256.38,325.852 250.58,327.828ZM241.02,317.121C241.02,313.998 241.88,310.843 243.601,307.656C237.228,309.25 232.129,311.544 228.305,314.54C224.481,317.471 222.569,320.308 222.569,323.048C222.569,324.96 223.589,326.522 225.628,327.733C227.732,328.88 230.727,329.453 234.615,329.453C238.566,329.453 242.55,328.848 246.565,327.637C242.868,325.215 241.02,321.71 241.02,317.121ZM273.333,307.083C269.19,306.127 264.729,305.649 259.949,305.649C255.233,305.649 250.325,306.191 245.226,307.274C243.378,310.461 242.454,313.647 242.454,316.834C242.454,321.423 244.462,324.801 248.477,326.968C253.83,324.992 258.738,322.156 263.199,318.459C267.661,314.763 271.038,310.971 273.333,307.083ZM342.261,330.696C347.232,330.696 351.885,329.198 356.218,326.203C360.616,323.144 363.93,319.734 366.161,315.974C368.392,312.213 369.507,308.899 369.507,306.031C369.507,302.398 367.914,300.582 364.727,300.582C361.349,300.582 357.812,302.175 354.115,305.362C350.419,308.485 347.328,312.373 344.842,317.025C342.42,321.678 341.209,326.044 341.209,330.123L341.209,330.601C341.4,330.664 341.751,330.696 342.261,330.696ZM282.415,276.204L282.511,277.829L283.849,277.829C289.585,277.829 295.098,277.032 300.388,275.439C305.741,273.782 310.171,271.743 313.676,269.321C317.182,266.899 319.954,264.349 321.994,261.673C324.097,258.932 325.148,256.478 325.148,254.311C325.148,252.145 324.224,250.456 322.376,249.245C320.591,247.97 317.915,247.333 314.346,247.333C308.928,247.333 303.702,248.926 298.667,252.113C293.632,255.299 289.649,259.123 286.717,263.585C283.849,268.046 282.415,272.252 282.415,276.204ZM297.998,232.801L298.285,233.949C288.342,235.351 280.025,239.143 273.333,245.325C266.705,251.443 263.39,257.626 263.39,263.871C263.39,267.568 264.729,270.659 267.406,273.145C270.082,275.567 274.098,277.064 279.451,277.638C279.324,276.491 279.26,275.598 279.26,274.961C279.26,271.774 280.152,268.492 281.937,265.114C283.721,261.673 286.143,258.518 289.203,255.65C292.262,252.718 296.086,250.328 300.675,248.48C305.263,246.568 309.789,245.612 314.25,245.612C318.775,245.612 321.994,246.345 323.906,247.811C325.881,249.213 326.869,251.157 326.869,253.642C326.869,256.128 325.818,258.837 323.714,261.768C321.611,264.636 318.743,267.377 315.11,269.99C311.477,272.603 306.825,274.77 301.153,276.491C295.544,278.212 289.585,279.072 283.275,279.072L282.702,279.072C284.104,284.489 288.788,287.198 296.755,287.198C300.834,287.198 305.71,285.987 311.382,283.565C317.054,281.143 322.886,277.447 328.877,272.476L329.45,273.24C327.538,274.897 325.116,276.746 322.185,278.785C319.253,280.761 315.238,282.832 310.139,284.999C305.04,287.166 300.42,288.25 296.277,288.25C287.099,288.25 281.618,285.159 279.834,278.976C273.907,278.53 269.413,276.969 266.354,274.292C263.359,271.615 261.861,268.269 261.861,264.254C261.861,257.817 265.239,251.412 271.994,245.038C278.814,238.665 287.482,234.586 297.998,232.801ZM358.322,343.507C360.361,343.507 362.528,343.124 364.822,342.359L365.587,342.837C363.612,343.921 360.744,344.463 356.983,344.463C351.311,344.463 347.073,343.252 344.268,340.83C341.528,338.472 340.062,335.285 339.871,331.27C337.258,330.632 335.123,329.198 333.466,326.968C331.808,324.673 330.98,322.06 330.98,319.129C330.98,316.133 331.713,312.978 333.179,309.664C334.645,306.35 336.397,303.195 338.437,300.2C340.54,297.204 343.312,293.826 346.754,290.066C350.196,286.306 353.223,283.119 355.836,280.506C358.449,277.893 361.763,274.834 365.779,271.328C371.26,266.485 376.645,261.896 381.935,257.562L381.744,257.371C362.369,269.161 338.437,290.385 309.948,321.041L304.594,328.019C304.275,328.211 303.989,328.306 303.734,328.306C303.479,328.306 303.351,328.115 303.351,327.733L304.498,325.725L314.059,310.62C320.241,300.295 324.575,293.125 327.06,289.11C335.792,274.897 343.854,264.445 351.247,257.753C350.164,257.753 347.232,259.984 342.452,264.445L340.062,266.74C318.329,289.11 302.077,305.139 291.306,314.827C294.556,318.268 296.181,321.965 296.181,325.916C296.181,330.824 293.568,335.285 288.342,339.3C283.18,343.379 275.532,346.183 265.398,347.713L265.398,346.661C274.257,345.259 281.045,342.583 285.761,338.631C290.477,334.743 292.835,330.409 292.835,325.629C292.835,322.443 291.72,319.383 289.489,316.452C284.327,320.913 279.292,324.355 274.384,326.777C269.477,329.198 264.569,330.409 259.662,330.409C254.754,330.409 250.962,329.772 248.285,328.497C243.633,329.836 239.044,330.505 234.519,330.505C229.994,330.505 226.52,329.772 224.099,328.306C221.677,326.904 220.466,325.088 220.466,322.857C220.466,319.798 222.569,316.707 226.775,313.584C230.982,310.397 236.813,308.007 244.27,306.414C246.756,302.271 250.197,298.829 254.595,296.089C259.056,293.285 263.932,291.882 269.222,291.882C272.472,291.882 274.894,292.583 276.488,293.986C278.081,295.324 278.878,297.14 278.878,299.435C278.878,301.729 278.208,304.151 276.87,306.7C282.67,308.421 287.195,310.875 290.445,314.062C290.955,313.552 292.708,311.927 295.703,309.186C298.699,306.446 304.021,301.251 311.669,293.603C319.38,285.955 325.881,279.423 331.171,274.005L339.01,265.975C347.168,258.008 354.147,253.387 359.947,252.113C360.648,252.113 360.998,252.304 360.998,252.686C360.998,253.005 360.807,253.228 360.425,253.355C357.493,254.248 354.752,256.223 352.203,259.283C349.654,262.278 346.563,266.421 342.93,271.711C339.297,277.001 336.525,281.207 334.613,284.33L318.169,310.429C318.169,310.493 318.265,310.524 318.456,310.524L319.699,309.568C331.808,296.822 343.025,285.955 353.35,276.969C363.739,267.919 374.733,260.016 386.332,253.26C388.818,251.603 390.22,250.774 390.539,250.774C390.921,250.774 391.112,250.965 391.112,251.348C391.112,251.73 391.049,251.985 390.921,252.113C390.794,252.24 389.423,253.324 386.81,255.363C384.261,257.402 381.903,259.41 379.736,261.386C377.569,263.362 375.657,265.114 374,266.644C372.343,268.173 369.602,270.818 365.778,274.579C361.954,278.339 358.831,281.526 356.409,284.139C354.051,286.688 351.247,289.907 347.997,293.794C344.746,297.618 342.197,300.996 340.349,303.928C335.76,311.194 333.465,317.153 333.465,321.805C333.465,324.673 334.549,327.031 336.716,328.88C337.608,329.645 338.66,330.154 339.871,330.409C339.871,326.012 341.145,321.391 343.695,316.547C346.244,311.64 349.526,307.497 353.541,304.119C357.62,300.741 361.636,299.052 365.587,299.052C367.818,299.052 369.602,299.753 370.941,301.156C372.343,302.494 373.044,304.406 373.044,306.892C373.044,309.377 372.247,312.054 370.654,314.922C369.124,317.726 367.053,320.371 364.44,322.857C361.827,325.343 358.576,327.414 354.689,329.071C350.865,330.792 346.881,331.652 342.739,331.652L341.305,331.557C342.006,339.523 347.678,343.507 358.321,343.507L358.322,343.507Z" style="fill:rgb(36,36,36);fill-rule:nonzero;"/>
            <path id="path12546" d="M394.459,311.863C394.459,311.353 393.949,311.098 392.929,311.098C391.909,311.098 389.838,312.086 386.715,314.062C383.592,315.974 380.947,318.045 378.78,320.276C383.05,319.575 386.715,318.3 389.774,316.452C392.897,314.54 394.459,313.01 394.459,311.863ZM375.721,325.343C375.721,327.191 376.996,328.115 379.545,328.115C384.389,328.115 390.411,325.502 397.613,320.276L397.805,321.71C390.284,327 383.847,329.645 378.493,329.645C374.669,329.645 372.757,328.051 372.757,324.865C372.757,321.678 375.115,318.364 379.832,314.922C384.612,311.481 389.519,309.76 394.554,309.76C396.148,309.76 396.944,310.238 396.944,311.194C396.944,312.723 395.16,314.572 391.591,316.739C388.085,318.842 383.465,320.403 377.729,321.423C376.39,322.953 375.721,324.259 375.721,325.343Z" style="fill:rgb(36,36,36);fill-rule:nonzero;"/>
            <path id="path12548" d="M406.695,315.783C403.636,317.949 400.418,320.085 397.04,322.188L396.753,320.849L405.835,314.54C408.958,312.309 411.348,311.194 413.005,311.194C414.662,311.194 415.491,311.895 415.491,313.297C415.491,315.4 414.025,317.918 411.093,320.849L412.718,319.893C421.45,314.221 426.899,311.385 429.066,311.385C431.233,311.385 432.316,311.959 432.316,313.106C432.316,314.38 431.296,316.388 429.257,319.129C436.523,314.094 442.354,311.576 446.752,311.576C448.473,311.576 449.333,312.309 449.333,313.775C449.333,315.241 448.696,316.77 447.421,318.364C446.146,319.893 444.744,321.232 443.215,322.379C439.136,325.311 437.096,327.159 437.096,327.924C437.096,328.37 437.447,328.593 438.148,328.593C438.913,328.593 440.155,328.211 441.876,327.446C443.597,326.681 445.127,325.916 446.465,325.151C447.803,324.323 449.397,323.335 451.245,322.188C453.157,320.977 454.177,320.339 454.304,320.276L454.495,321.71C445.891,327.446 439.869,330.314 436.427,330.314C434.77,330.314 433.941,329.517 433.941,327.924C433.941,326.84 434.61,325.566 435.949,324.1C437.351,322.57 438.849,321.168 440.442,319.893C444.84,316.579 447.039,314.38 447.039,313.297C447.039,312.978 446.688,312.819 445.987,312.819C443.629,312.819 440.123,314.094 435.471,316.643C430.818,319.192 425.656,323.335 419.984,329.071C419.601,329.453 418.773,329.645 417.498,329.645C416.287,329.645 415.682,329.358 415.682,328.784C415.682,328.529 416.797,327.35 419.028,325.247C425.847,318.81 429.257,314.89 429.257,313.488C429.257,313.106 429.034,312.914 428.588,312.914C427.122,312.914 423.903,314.54 418.932,317.79C414.025,320.977 408.99,324.705 403.827,328.975C403.062,329.422 402.457,329.645 402.011,329.645C400.035,329.645 399.047,329.422 399.047,328.975C399.047,328.72 399.908,327.828 401.628,326.299C403.413,324.769 405.771,322.475 408.703,319.415C411.698,316.292 413.196,314.125 413.196,312.914C413.196,312.66 413.037,312.532 412.718,312.532C411.571,312.532 409.563,313.616 406.695,315.783Z" style="fill:rgb(36,36,36);fill-rule:nonzero;"/>
            <path id="path12550" d="M454.782,328.115C457.204,328.115 460.423,326.904 464.438,324.482C468.517,321.997 471.895,319.607 474.571,317.312C477.312,315.018 478.682,313.679 478.682,313.297C478.682,312.915 478.204,312.596 477.248,312.341C476.356,312.086 475.113,311.959 473.52,311.959C471.927,311.959 469.823,312.596 467.21,313.871C464.597,315.081 462.335,316.547 460.423,318.268C458.511,319.989 456.917,321.678 455.643,323.335C454.368,324.992 453.731,326.203 453.731,326.968C453.731,327.733 454.081,328.115 454.782,328.115ZM480.403,312.054C481.678,311.034 482.379,310.524 482.506,310.524C484.227,310.716 485.119,310.875 485.183,311.002C485.247,311.066 485.279,311.162 485.279,311.289C485.279,311.417 485.024,311.831 484.514,312.532C484.004,313.169 482.506,314.731 480.021,317.217C473.838,323.271 470.747,326.936 470.747,328.211C470.747,328.72 470.97,328.975 471.417,328.975C474.476,328.975 480.212,326.075 488.625,320.276L488.816,321.71C480.339,327.255 474.348,330.027 470.843,330.027C469.122,330.027 468.262,329.23 468.262,327.637C468.262,325.98 469.25,323.845 471.225,321.232C463.705,326.777 457.841,329.581 453.635,329.645C452.105,329.645 451.34,328.72 451.34,326.872C451.34,323.558 453.444,320.021 457.65,316.261C461.92,312.5 467.529,310.62 474.476,310.62C476.77,310.62 478.746,311.098 480.403,312.054Z" style="fill:rgb(36,36,36);fill-rule:nonzero;"/>
            <path id="path12552" d="M543.69,275.439C543.69,274.993 543.372,274.77 542.734,274.77C540.185,274.77 533.875,279.327 523.806,288.441C513.799,297.555 504.813,306.382 496.846,314.922C506.024,308.995 516.126,301.442 527.152,292.265C538.178,283.087 543.69,277.479 543.69,275.439ZM506.024,320.371L506.98,322.379C506.98,322.889 506.279,323.813 504.877,325.151C503.475,326.49 502.774,327.414 502.774,327.924C502.774,328.37 503.315,328.593 504.399,328.593C505.546,328.593 506.98,328.211 508.701,327.446C510.422,326.681 511.951,325.916 513.29,325.151C514.628,324.323 516.221,323.335 518.07,322.188C519.982,320.977 521.001,320.339 521.129,320.276L521.32,321.71C518.962,323.431 515.807,325.311 511.856,327.35C507.904,329.326 504.813,330.314 502.582,330.314C500.352,330.314 499.236,329.326 499.236,327.35C499.236,326.458 499.969,325.343 501.435,324.004C502.965,322.602 503.73,321.742 503.73,321.423C503.73,321.104 503.57,320.945 503.252,320.945C501.977,320.754 501.34,320.276 501.34,319.511C501.34,319.256 501.435,319.129 501.626,319.129L502.774,319.129C506.343,319.129 509.338,318.332 511.76,316.739C514.182,315.145 515.393,313.743 515.393,312.532C515.393,312.086 515.17,311.863 514.724,311.863C510.071,311.863 500.798,316.802 486.904,326.681L483.462,329.549C483.207,329.804 482.57,329.931 481.55,329.931C480.531,329.931 480.021,329.74 480.021,329.358C480.021,329.167 480.148,328.912 480.403,328.593C487.095,321.072 494.584,313.201 502.869,304.98C511.155,296.758 519.249,289.429 527.152,282.992C535.118,276.491 540.536,273.24 543.404,273.24C544.933,273.24 545.698,273.718 545.698,274.674C545.698,276.714 542.48,280.665 536.043,286.529C529.669,292.329 522.499,298.16 514.532,304.024C506.566,309.887 499.714,314.54 493.978,317.981C491.811,320.467 490.569,322.028 490.25,322.666C493.628,320.308 496.337,318.491 498.376,317.217C500.416,315.878 503.092,314.444 506.406,312.914C509.784,311.321 512.652,310.524 515.011,310.524C517.369,310.524 518.548,311.48 518.548,313.393C518.548,315.305 517.273,316.93 514.724,318.268C512.238,319.543 509.784,320.18 507.362,320.18L506.311,320.18C506.12,320.116 506.024,320.18 506.024,320.371Z" style="fill:rgb(36,36,36);fill-rule:nonzero;"/>
            <path id="path12554" d="M540.727,311.863C540.727,311.353 540.217,311.098 539.197,311.098C538.177,311.098 536.106,312.086 532.983,314.062C529.86,315.974 527.215,318.045 525.048,320.276C529.318,319.575 532.983,318.3 536.042,316.452C539.165,314.54 540.727,313.01 540.727,311.863ZM521.989,325.343C521.989,327.191 523.264,328.115 525.813,328.115C530.657,328.115 536.68,325.502 543.882,320.276L544.073,321.71C536.552,327 530.115,329.645 524.761,329.645C520.937,329.645 519.025,328.051 519.025,324.865C519.025,321.678 521.383,318.364 526.1,314.922C530.88,311.481 535.787,309.76 540.822,309.76C542.415,309.76 543.212,310.238 543.212,311.194C543.212,312.723 541.428,314.572 537.859,316.739C534.353,318.842 529.732,320.403 523.996,321.423C522.658,322.953 521.989,324.259 521.989,325.343Z" style="fill:rgb(36,36,36);fill-rule:nonzero;"/>
            <path id="path12556" d="M556.787,314.349L561.281,313.775C562.045,313.775 562.651,314.03 563.097,314.54C563.543,315.05 563.766,315.655 563.766,316.356C563.766,317.758 562.778,319.288 560.803,320.945C558.827,322.602 556.851,324.163 554.875,325.629C552.963,327.095 552.007,328.274 552.007,329.167C552.007,329.676 552.422,329.931 553.25,329.931C555.991,329.931 560.165,328.338 565.774,325.151C568.196,323.813 570.777,322.188 573.518,320.276L573.709,321.71C571.542,323.112 569.12,324.546 566.443,326.012C564.914,326.968 562.683,328.051 559.751,329.262C556.819,330.537 554.398,331.174 552.486,331.174C550.574,331.174 549.618,330.314 549.618,328.593C549.618,326.617 550.637,324.769 552.677,323.048C554.716,321.264 556.724,319.798 558.7,318.651C560.739,317.44 561.759,316.515 561.759,315.878C561.759,315.687 561.536,315.591 561.09,315.591L555.736,316.069C554.716,316.069 553.792,315.974 552.964,315.783C549.904,317.949 546.686,320.085 543.308,322.188L543.021,320.849L552.103,314.54C552.167,313.329 552.932,312.118 554.398,310.907C555.863,309.696 557.106,309.091 558.126,309.091C559.146,309.091 559.656,309.377 559.656,309.951C559.656,310.461 559.05,311.13 557.839,311.959C556.628,312.787 556.023,313.393 556.023,313.775C556.023,314.157 556.278,314.349 556.788,314.349L556.787,314.349Z" style="fill:rgb(36,36,36);fill-rule:nonzero;"/>
        </g>
    </g>
</svg>
