<?xml version="1.0" encoding="UTF-8" standalone="no"?>
<svg
   width="1035.194"
   height="198.96001"
   viewBox="0 0 1035.194 198.96001"
   version="1.1"
   xml:space="preserve"
   style="clip-rule:evenodd;fill-rule:evenodd;stroke-linejoin:round;stroke-miterlimit:2"
   id="svg24"
   sodipodi:docname="logo.svg"
   inkscape:version="1.1.2 (08b2f3d93c, 2022-04-05)"
   xmlns:inkscape="http://www.inkscape.org/namespaces/inkscape"
   xmlns:sodipodi="http://sodipodi.sourceforge.net/DTD/sodipodi-0.dtd"
   xmlns="http://www.w3.org/2000/svg"
   xmlns:svg="http://www.w3.org/2000/svg"><defs
   id="defs28" /><sodipodi:namedview
   id="namedview26"
   pagecolor="#ffffff"
   bordercolor="#999999"
   borderopacity="1"
   inkscape:pageshadow="0"
   inkscape:pageopacity="0"
   inkscape:pagecheckerboard="0"
   showgrid="false"
   fit-margin-top="0"
   fit-margin-left="0"
   fit-margin-right="0"
   fit-margin-bottom="0"
   inkscape:zoom="0.46079792"
   inkscape:cx="780.16845"
   inkscape:cy="70.529832"
   inkscape:window-width="1920"
   inkscape:window-height="1016"
   inkscape:window-x="0"
   inkscape:window-y="0"
   inkscape:window-maximized="1"
   inkscape:current-layer="g22" />
    <g
   transform="translate(-410.608,-206.986)"
   id="g22">
        <path
   d="m 509.432,260.266 c -8.67,0 -14.619,2.705 -17.991,7.899 -4.251,-5.184 -11.072,-7.899 -20.601,-7.899 h -11.52 c -5.394,0 -9.658,1.158 -12.84,3.397 0,10e-4 0,-0.397 0,-0.397 0,-1.657 -1.343,-3 -3,-3 h -19.872 c -1.657,0 -3,1.343 -3,3 v 139.68 c 0,1.656 1.343,3 3,3 h 19.872 c 1.657,0 3,-1.344 3,-3 v -112.32 c 0,-2.799 0.306,-4.824 1.425,-5.943 1.089,-1.089 2.918,-1.425 5.367,-1.425 h 11.52 c 1.64,0 2.984,0.106 4.029,0.352 0.491,0.115 0.892,0.172 1.104,0.403 0,0 0,0 0,0 0.247,0.269 0.346,0.72 0.469,1.281 0.226,1.029 0.326,2.327 0.326,3.892 0,0 0,113.76 0,113.76 0,1.656 1.343,3 3,3 h 19.872 c 1.657,0 3,-1.344 3,-3 v -112.32 c 0,-2.799 0.306,-4.824 1.425,-5.943 1.089,-1.089 2.918,-1.425 5.367,-1.425 h 11.52 c 1.64,0 2.984,0.106 4.029,0.352 0.491,0.115 0.892,0.172 1.104,0.403 0,0 0,0 0,0 0.247,0.269 0.346,0.72 0.469,1.281 0.226,1.029 0.326,2.327 0.326,3.892 v 113.76 c 0,1.656 1.343,3 3,3 h 19.872 c 1.657,0 3,-1.344 3,-3 V 286.018 c 0,-8.55 -2.292,-14.911 -6.567,-19.186 -4.275,-4.275 -10.635,-6.566 -19.185,-6.566 z m 0,3 h 11.52 c 15.168,0 22.752,7.584 22.752,22.752 v 116.928 h -19.872 v -113.76 c 0,-3.648 -0.528,-6.048 -1.584,-7.2 -1.056,-1.152 -3.504,-1.728 -7.344,-1.728 h -11.52 c -3.456,0 -5.952,0.768 -7.488,2.304 -1.536,1.536 -2.304,4.224 -2.304,8.064 v 112.32 H 473.72 v -113.76 c 0,-3.648 -0.528,-6.048 -1.584,-7.2 -1.056,-1.152 -3.504,-1.728 -7.344,-1.728 h -11.52 c -3.456,0 -5.952,0.768 -7.488,2.304 -1.536,1.536 -2.304,4.224 -2.304,8.064 v 112.32 h -19.872 v -139.68 h 19.872 v 9.504 c 2.112,-6.336 7.392,-9.504 15.84,-9.504 h 11.52 c 10.944,0 17.952,3.84 21.024,11.52 1.92,-7.68 7.776,-11.52 17.568,-11.52 z"
   style="fill:#ffffff"
   id="path2" />
        <path
   d="m 588.056,405.946 c 1.657,0 3,-1.344 3,-3 v -139.68 c 0,-1.657 -1.343,-3 -3,-3 h -19.872 c -1.657,0 -3,1.343 -3,3 v 139.68 c 0,1.656 1.343,3 3,3 z m 0,-3 h -19.872 v -139.68 h 19.872 z M 564.608,233.314 c 0,1.656 1.343,3 3,3 h 21.024 c 1.657,0 3,-1.344 3,-3 v -23.328 c 0,-1.657 -1.343,-3 -3,-3 h -21.024 c -1.657,0 -3,1.343 -3,3 z m 3,0 v -23.328 h 21.024 v 23.328 z"
   style="fill:#ffffff"
   id="path4" />
        <path
   d="m 649.688,260.266 c -5.394,0 -9.658,1.158 -12.84,3.397 0,10e-4 0,-0.397 0,-0.397 0,-1.657 -1.343,-3 -3,-3 h -19.872 c -1.657,0 -3,1.343 -3,3 v 139.68 c 0,1.656 1.343,3 3,3 h 19.872 c 1.657,0 3,-1.344 3,-3 v -112.32 c 0,-2.799 0.306,-4.824 1.425,-5.943 1.089,-1.089 2.918,-1.425 5.367,-1.425 h 11.52 c 1.64,0 2.984,0.106 4.029,0.352 0.491,0.115 0.892,0.172 1.104,0.403 0,0 0,0 0,0 0.247,0.269 0.346,0.72 0.469,1.281 0.226,1.029 0.326,2.327 0.326,3.892 0,0 0,113.76 0,113.76 0,1.656 1.343,3 3,3 h 19.872 c 1.657,0 3,-1.344 3,-3 V 286.018 c 0,-8.55 -2.292,-14.911 -6.567,-19.186 -4.275,-4.275 -10.635,-6.566 -19.185,-6.566 z m 0,3 h 11.52 c 15.168,0 22.752,7.584 22.752,22.752 v 116.928 h -19.872 v -113.76 c 0,-3.648 -0.528,-6.048 -1.584,-7.2 -1.056,-1.152 -3.504,-1.728 -7.344,-1.728 h -11.52 c -3.456,0 -5.952,0.768 -7.488,2.304 -1.536,1.536 -2.304,4.224 -2.304,8.064 v 112.32 h -19.872 v -139.68 h 19.872 v 9.504 c 2.112,-6.336 7.392,-9.504 15.84,-9.504 z"
   style="fill:#ffffff"
   id="path6" />
        <path
   d="m 759.992,260.266 c -1.657,0 -3,1.343 -3,3 v 112.32 c 0,2.798 -0.306,4.823 -1.425,5.942 -1.089,1.089 -2.918,1.426 -5.367,1.426 h -11.52 c -1.564,0 -2.862,-0.1 -3.891,-0.326 -0.562,-0.124 -1.012,-0.223 -1.282,-0.47 -0.231,-0.212 -0.287,-0.613 -0.403,-1.104 -0.246,-1.045 -0.352,-2.389 -0.352,-4.028 0,0 0,-113.76 0,-113.76 0,-1.657 -1.343,-3 -3,-3 H 709.88 c -1.657,0 -3,1.343 -3,3 v 116.928 c 0,8.549 2.292,14.91 6.567,19.185 4.275,4.275 10.635,6.567 19.185,6.567 h 11.52 c 5.394,0 9.658,-1.159 12.84,-3.398 0,-10e-4 0,0.398 0,0.398 0,1.656 1.343,3 3,3 h 19.872 c 1.657,0 3,-1.344 3,-3 v -139.68 c 0,-1.657 -1.343,-3 -3,-3 z m 0,3 h 19.872 v 139.68 h -19.872 v -9.504 c -2.112,6.336 -7.392,9.504 -15.84,9.504 h -11.52 c -15.168,0 -22.752,-7.584 -22.752,-22.752 V 263.266 h 19.872 v 113.76 c 0,3.84 0.576,6.288 1.728,7.344 1.152,1.056 3.552,1.584 7.2,1.584 h 11.52 c 3.456,0 5.952,-0.768 7.488,-2.304 1.536,-1.536 2.304,-4.224 2.304,-8.064 z"
   style="fill:#ffffff"
   id="path8" />
        <path
   d="m 891.608,260.266 c -8.67,0 -14.619,2.705 -17.991,7.899 -4.251,-5.184 -11.072,-7.899 -20.601,-7.899 h -11.52 c -5.394,0 -9.658,1.158 -12.84,3.397 0,10e-4 0,-0.397 0,-0.397 0,-1.657 -1.343,-3 -3,-3 h -19.872 c -1.657,0 -3,1.343 -3,3 v 139.68 c 0,1.656 1.343,3 3,3 h 19.872 c 1.657,0 3,-1.344 3,-3 v -112.32 c 0,-2.799 0.306,-4.824 1.425,-5.943 1.089,-1.089 2.918,-1.425 5.367,-1.425 h 11.52 c 1.64,0 2.984,0.106 4.029,0.352 0.491,0.115 0.892,0.172 1.104,0.403 0,0 0,0 0,0 0.247,0.269 0.346,0.72 0.469,1.281 0.226,1.029 0.326,2.327 0.326,3.892 v 113.76 c 0,1.656 1.343,3 3,3 h 19.872 c 1.657,0 3,-1.344 3,-3 v -112.32 c 0,-2.799 0.306,-4.824 1.425,-5.943 1.089,-1.089 2.918,-1.425 5.367,-1.425 h 11.52 c 1.64,0 2.984,0.106 4.029,0.352 0.491,0.115 0.892,0.172 1.104,0.403 0,0 0,0 0,0 0.247,0.269 0.346,0.72 0.469,1.281 0.226,1.029 0.326,2.327 0.326,3.892 0,0 0,113.76 0,113.76 0,1.656 1.343,3 3,3 h 19.872 c 1.657,0 3,-1.344 3,-3 V 286.018 c 0,-8.55 -2.292,-14.911 -6.567,-19.186 -4.275,-4.275 -10.635,-6.566 -19.185,-6.566 z m 0,3 h 11.52 c 15.168,0 22.752,7.584 22.752,22.752 v 116.928 h -19.872 v -113.76 c 0,-3.648 -0.528,-6.048 -1.584,-7.2 -1.056,-1.152 -3.504,-1.728 -7.344,-1.728 h -11.52 c -3.456,0 -5.952,0.768 -7.488,2.304 -1.536,1.536 -2.304,4.224 -2.304,8.064 v 112.32 h -19.872 v -113.76 c 0,-3.648 -0.528,-6.048 -1.584,-7.2 -1.056,-1.152 -3.504,-1.728 -7.344,-1.728 h -11.52 c -3.456,0 -5.952,0.768 -7.488,2.304 -1.536,1.536 -2.304,4.224 -2.304,8.064 v 112.32 h -19.872 v -139.68 h 19.872 v 9.504 c 2.112,-6.336 7.392,-9.504 15.84,-9.504 h 11.52 c 10.944,0 17.952,3.84 21.024,11.52 1.92,-7.68 7.776,-11.52 17.568,-11.52 z"
   style="fill:#ffffff"
   id="path10" />
        <path
   d="m 991.256,283.258 c 1.657,0 3,-1.344 3,-3 v -16.992 c 0,-1.657 -1.343,-3 -3,-3 h -16.872 c 0,0 0,-19.752 0,-19.752 0,-1.657 -1.343,-3 -3,-3 h -19.872 c -1.657,0 -3,1.343 -3,3 v 19.752 c 0,0 -9.672,0 -9.672,0 -1.657,0 -3,1.343 -3,3 v 16.992 c 0,1.656 1.343,3 3,3 h 9.672 c 0,-10e-4 0,96.936 0,96.936 0,8.549 2.292,14.91 6.567,19.185 4.275,4.275 10.635,6.567 19.185,6.567 h 16.992 c 1.657,0 3,-1.344 3,-3 v -18.432 c 0,-1.657 -1.343,-3 -3,-3 h -10.944 c -1.542,0 -2.821,-0.106 -3.836,-0.35 -0.543,-0.13 -0.982,-0.239 -1.243,-0.5 -0.26,-0.26 -0.37,-0.7 -0.5,-1.243 -0.243,-1.014 -0.349,-2.294 -0.349,-3.835 v -92.328 c 0,0 16.872,0 16.872,0 z m 0,-3 h -19.872 v 95.328 c 0,3.648 0.576,6.048 1.728,7.2 1.152,1.152 3.552,1.728 7.2,1.728 h 10.944 v 18.432 h -16.992 c -15.168,0 -22.752,-7.584 -22.752,-22.752 V 280.258 H 938.84 v -16.992 h 12.672 v -22.752 h 19.872 v 22.752 h 19.872 z"
   style="fill:#ffffff"
   id="path12" />
        <path
   d="m 1026.97,405.946 c 1.65,0 3,-1.344 3,-3 v -139.68 c 0,-1.657 -1.35,-3 -3,-3 h -19.874 c -1.657,0 -3,1.343 -3,3 v 139.68 c 0,1.656 1.343,3 3,3 z m 0,-3 h -19.874 v -139.68 h 19.874 z m -23.45,-169.632 c 0,1.656 1.343,3 3,3 h 21.02 c 1.66,0 3,-1.344 3,-3 v -23.328 c 0,-1.657 -1.34,-3 -3,-3 h -21.02 c -1.657,0 -3,1.343 -3,3 z m 3,0 v -23.328 h 21.02 v 23.328 z"
   style="fill:#ffffff"
   id="path14" />
        <path
   d="m 1103,260.266 c -1.66,0 -3,1.343 -3,3 v 112.32 c 0,2.798 -0.31,4.823 -1.42,5.942 -1.09,1.089 -2.92,1.426 -5.37,1.426 h -11.52 c -1.57,0 -2.86,-0.1 -3.89,-0.326 -0.56,-0.124 -1.01,-0.223 -1.28,-0.47 -0.24,-0.212 -0.29,-0.613 -0.41,-1.104 -0.24,-1.045 -0.35,-2.389 -0.35,-4.028 v -113.76 c 0,-1.657 -1.34,-3 -3,-3 h -19.87 c -1.66,0 -3,1.343 -3,3 v 116.928 c 0,8.549 2.29,14.91 6.56,19.185 4.28,4.275 10.64,6.567 19.19,6.567 h 11.52 c 5.39,0 9.66,-1.159 12.84,-3.398 0,-10e-4 0,0.398 0,0.398 0,1.656 1.34,3 3,3 h 19.87 c 1.66,0 3,-1.344 3,-3 v -139.68 c 0,-1.657 -1.34,-3 -3,-3 z m 0,3 h 19.87 v 139.68 H 1103 v -9.504 c -2.11,6.336 -7.39,9.504 -15.84,9.504 h -11.52 c -15.17,0 -22.75,-7.584 -22.75,-22.752 V 263.266 h 19.87 v 113.76 c 0,3.84 0.58,6.288 1.73,7.344 1.15,1.056 3.55,1.584 7.2,1.584 h 11.52 c 3.45,0 5.95,-0.768 7.49,-2.304 1.53,-1.536 2.3,-4.224 2.3,-8.064 z"
   style="fill:#ffffff"
   id="path16" />
        <path
   d="m 1234.62,260.266 c -8.67,0 -14.62,2.705 -18,7.899 -4.25,-5.184 -11.07,-7.899 -20.6,-7.899 h -11.52 c -5.39,0 -9.65,1.158 -12.84,3.397 0,10e-4 0,-0.397 0,-0.397 0,-1.657 -1.34,-3 -3,-3 h -19.87 c -1.66,0 -3,1.343 -3,3 v 139.68 c 0,1.656 1.34,3 3,3 h 19.87 c 1.66,0 3,-1.344 3,-3 v -112.32 c 0,-2.799 0.31,-4.824 1.43,-5.943 1.09,-1.089 2.92,-1.425 5.37,-1.425 h 11.52 c 1.64,0 2.98,0.106 4.03,0.352 0.49,0.115 0.89,0.172 1.1,0.403 0,0 0,0 0,0 0.25,0.269 0.34,0.72 0.47,1.281 0.22,1.029 0.32,2.327 0.32,3.892 0,0 0,113.76 0,113.76 0,1.656 1.35,3 3,3 h 19.88 c 1.65,0 3,-1.344 3,-3 v -112.32 c 0,-2.799 0.3,-4.824 1.42,-5.943 1.09,-1.089 2.92,-1.425 5.37,-1.425 h 11.52 c 1.64,0 2.98,0.106 4.03,0.352 0.49,0.115 0.89,0.172 1.1,0.403 0,0 0,0 0,0 0.25,0.269 0.35,0.72 0.47,1.281 0.23,1.029 0.33,2.327 0.33,3.892 0,0 0,113.76 0,113.76 0,1.656 1.34,3 3,3 h 19.87 c 1.66,0 3,-1.344 3,-3 V 286.018 c 0,-8.55 -2.29,-14.911 -6.57,-19.186 -4.27,-4.275 -10.63,-6.566 -19.18,-6.566 z m 0,3 h 11.52 c 15.16,0 22.75,7.584 22.75,22.752 v 116.928 h -19.87 v -113.76 c 0,-3.648 -0.53,-6.048 -1.59,-7.2 -1.05,-1.152 -3.5,-1.728 -7.34,-1.728 h -11.52 c -3.46,0 -5.95,0.768 -7.49,2.304 -1.54,1.536 -2.3,4.224 -2.3,8.064 v 112.32 h -19.88 v -113.76 c 0,-3.648 -0.52,-6.048 -1.58,-7.2 -1.06,-1.152 -3.5,-1.728 -7.34,-1.728 h -11.52 c -3.46,0 -5.96,0.768 -7.49,2.304 -1.54,1.536 -2.31,4.224 -2.31,8.064 v 112.32 h -19.87 v -139.68 h 19.87 v 9.504 c 2.12,-6.336 7.4,-9.504 15.84,-9.504 h 11.52 c 10.95,0 17.96,3.84 21.03,11.52 1.92,-7.68 7.77,-11.52 17.57,-11.52 z"
   style="fill:#ffffff"
   id="path18" />
        <rect
   x="1299.85"
   y="324.1514"
   width="137.952"
   height="16.704"
   style="fill:#ffffff;fill-rule:nonzero"
   id="rect20" />
    </g>
</svg>
