<?xml version="1.0" encoding="UTF-8" standalone="no"?>
<!DOCTYPE svg PUBLIC "-//W3C//DTD SVG 1.1//EN" "http://www.w3.org/Graphics/SVG/1.1/DTD/svg11.dtd">
<svg width="100%" height="100%" viewBox="0 0 2855 657" version="1.1" xmlns="http://www.w3.org/2000/svg" xmlns:xlink="http://www.w3.org/1999/xlink" xml:space="preserve" xmlns:serif="http://www.serif.com/" style="fill-rule:evenodd;clip-rule:evenodd;stroke-linejoin:round;stroke-miterlimit:2;">
    <g transform="matrix(1,0,0,1,-546.066,-819.649)">
        <path d="M3092.59,1167.86L2969.01,1044.27L2969.01,980.886C2969.01,942.526 2937.66,911.649 2899.3,911.649L2836.38,911.649L2744.38,819.649L3400.68,819.649L3400.68,1475.95L3173.89,1249.16L3189.23,1249.16L3189.23,1008.45L3309.35,1008.45L3309.35,911.649L2972.3,911.649L2972.3,1008.45L3092.59,1008.45L3092.59,1167.86Z" style="fill:rgb(36,36,36);"/>
        <g transform="matrix(35.5407,0,0,35.5407,-12240.5,-10841.7)">
            <path d="M366.481,339.775L363.973,336.787L366.409,336.787L368.401,339.139L368.401,339.775L366.481,339.775ZM359.773,339.775L359.773,331.147L366.625,331.147C366.953,331.147 367.251,331.227 367.519,331.387C367.787,331.547 368.003,331.763 368.167,332.035C368.331,332.307 368.413,332.603 368.413,332.923L368.413,335.155C368.413,335.475 368.331,335.771 368.167,336.043C368.003,336.315 367.787,336.531 367.519,336.691C367.251,336.851 366.953,336.931 366.625,336.931L361.633,336.943L361.633,339.775L359.773,339.775ZM361.633,335.059L366.529,335.059L366.529,333.007L361.633,333.007L361.633,335.059Z" style="fill:rgb(36,36,36);fill-rule:nonzero;"/>
            <path d="M371.425,339.775C371.105,339.775 370.809,339.695 370.537,339.535C370.265,339.375 370.049,339.159 369.889,338.887C369.729,338.615 369.649,338.319 369.649,337.999L369.649,331.135L371.509,331.135L371.509,337.903L376.405,337.903L376.405,331.135L378.289,331.135L378.289,337.999C378.289,338.319 378.207,338.615 378.043,338.887C377.879,339.159 377.663,339.375 377.395,339.535C377.127,339.695 376.833,339.775 376.513,339.775L371.425,339.775Z" style="fill:rgb(36,36,36);fill-rule:nonzero;"/>
            <path d="M381.361,339.775C381.041,339.775 380.745,339.695 380.473,339.535C380.201,339.375 379.985,339.159 379.825,338.887C379.665,338.615 379.585,338.319 379.585,337.999L379.585,337.195L381.445,337.195L381.445,337.903L386.341,337.903L386.341,336.391L381.361,336.391C381.041,336.391 380.745,336.311 380.473,336.151C380.201,335.991 379.985,335.777 379.825,335.509C379.665,335.241 379.585,334.943 379.585,334.615L379.585,332.911C379.585,332.583 379.665,332.285 379.825,332.017C379.985,331.749 380.201,331.535 380.473,331.375C380.745,331.215 381.041,331.135 381.361,331.135L386.449,331.135C386.769,331.135 387.063,331.215 387.331,331.375C387.599,331.535 387.815,331.749 387.979,332.017C388.143,332.285 388.225,332.583 388.225,332.911L388.225,333.715L386.341,333.715L386.341,333.007L381.445,333.007L381.445,334.519L386.449,334.519C386.769,334.519 387.063,334.599 387.331,334.759C387.599,334.919 387.815,335.133 387.979,335.401C388.143,335.669 388.225,335.967 388.225,336.295L388.225,337.999C388.225,338.319 388.143,338.615 387.979,338.887C387.815,339.159 387.599,339.375 387.331,339.535C387.063,339.695 386.769,339.775 386.449,339.775L381.361,339.775Z" style="fill:rgb(36,36,36);fill-rule:nonzero;"/>
            <path d="M389.557,339.775L389.557,331.135L391.417,331.135L391.417,334.519L396.517,334.519L396.517,331.135L398.377,331.135L398.377,339.775L396.517,339.775L396.517,336.391L391.417,336.391L391.417,339.775L389.557,339.775Z" style="fill:rgb(36,36,36);fill-rule:nonzero;"/>
            <path d="M399.793,339.775L399.793,331.135L406.321,331.135C406.641,331.135 406.935,331.215 407.203,331.375C407.471,331.535 407.687,331.749 407.851,332.017C408.015,332.285 408.097,332.583 408.097,332.911L408.097,334.531C408.097,334.635 408.091,334.733 408.079,334.825C408.067,334.917 408.045,335.003 408.013,335.083C408.133,335.235 408.233,335.411 408.313,335.611C408.393,335.811 408.433,336.011 408.433,336.211L408.433,337.999C408.433,338.319 408.351,338.615 408.187,338.887C408.023,339.159 407.807,339.375 407.539,339.535C407.271,339.695 406.973,339.775 406.645,339.775L399.793,339.775ZM401.653,337.903L406.549,337.903L406.549,336.319L401.653,336.319L401.653,337.903ZM401.653,334.447L406.213,334.447L406.213,333.007L401.653,333.007L401.653,334.447Z" style="fill:rgb(36,36,36);fill-rule:nonzero;"/>
            <path d="M409.765,339.775L409.765,331.135L417.745,331.135L417.745,333.007L411.649,333.007L411.649,334.519L416.557,334.519L416.557,336.391L411.649,336.391L411.649,337.903L417.745,337.903L417.745,339.775L409.765,339.775Z" style="fill:rgb(36,36,36);fill-rule:nonzero;"/>
            <path d="M418.957,339.775L418.957,332.911C418.957,332.583 419.037,332.285 419.197,332.017C419.357,331.749 419.573,331.535 419.845,331.375C420.117,331.215 420.413,331.135 420.733,331.135L425.809,331.135C426.137,331.135 426.435,331.215 426.703,331.375C426.971,331.535 427.187,331.749 427.351,332.017C427.515,332.285 427.597,332.583 427.597,332.911L427.597,339.775L425.713,339.775L425.713,336.991L420.817,336.991L420.817,339.775L418.957,339.775ZM420.817,335.119L425.713,335.119L425.713,333.007L420.817,333.007L420.817,335.119Z" style="fill:rgb(36,36,36);fill-rule:nonzero;"/>
            <path d="M431.917,339.775L431.917,333.007L428.533,333.007L428.533,331.135L437.173,331.135L437.173,333.007L433.789,333.007L433.789,339.775L431.917,339.775Z" style="fill:rgb(36,36,36);fill-rule:nonzero;"/>
        </g>
    </g>
</svg>
