<?xml version="1.0" encoding="UTF-8" standalone="no"?>
<!-- Created with Inkscape (http://www.inkscape.org/) -->

<svg
   width="97.325836mm"
   height="97.325325mm"
   viewBox="0 0 97.325836 97.325325"
   version="1.1"
   id="svg66131"
   inkscape:version="1.1.2 (08b2f3d93c, 2022-04-05)"
   sodipodi:docname="logo.svg"
   xmlns:inkscape="http://www.inkscape.org/namespaces/inkscape"
   xmlns:sodipodi="http://sodipodi.sourceforge.net/DTD/sodipodi-0.dtd"
   xmlns="http://www.w3.org/2000/svg"
   xmlns:svg="http://www.w3.org/2000/svg">
  <sodipodi:namedview
     id="namedview66133"
     pagecolor="#ffffff"
     bordercolor="#999999"
     borderopacity="1"
     inkscape:pageshadow="0"
     inkscape:pageopacity="0"
     inkscape:pagecheckerboard="0"
     inkscape:document-units="mm"
     showgrid="false"
     fit-margin-top="0"
     fit-margin-left="0"
     fit-margin-right="0"
     fit-margin-bottom="0"
     inkscape:zoom="0.69664703"
     inkscape:cx="197.37399"
     inkscape:cy="300.72618"
     inkscape:window-width="1920"
     inkscape:window-height="1016"
     inkscape:window-x="0"
     inkscape:window-y="0"
     inkscape:window-maximized="1"
     inkscape:current-layer="layer1" />
  <defs
     id="defs66128" />
  <g
     inkscape:label="Layer 1"
     inkscape:groupmode="layer"
     id="layer1"
     transform="translate(-68.789622,-75.209204)">
    <path
       id="path10181-1"
       style="mix-blend-mode:normal;fill:#ffffff;stroke:none;stroke-width:1.44219;stroke-linecap:round;stroke-linejoin:round;stroke-miterlimit:2;paint-order:markers stroke fill"
       d="M 117.45229,75.209204 A 48.662764,48.662764 0 0 0 68.789622,123.87187 48.662764,48.662764 0 0 0 117.45229,172.53453 48.662764,48.662764 0 0 0 166.11546,123.87187 48.662764,48.662764 0 0 0 117.45229,75.209204 Z M 105.5543,108.24595 v 1.07693 c -1.08683,0 -1.85621,0.28676 -2.30735,0.86093 -0.43063,0.55368 -0.64595,1.39448 -0.64595,2.52233 v 5.87509 c 0,0.79975 -0.0714,1.48669 -0.21498,2.06086 -0.14354,0.55367 -0.44131,1.0048 -0.89245,1.35341 -0.43063,0.3486 -1.09708,0.61538 -1.999362,0.79995 v 0.12299 c 0.902282,0.18455 1.568732,0.46132 1.999362,0.83044 0.45114,0.34861 0.74891,0.79974 0.89245,1.3534 0.14355,0.55368 0.21498,1.24061 0.21498,2.06086 v 5.87509 c 0,1.14836 0.21532,2.00965 0.64595,2.58382 0.45114,0.57418 1.22052,0.86145 2.30735,0.86145 v 1.04541 c -1.29189,0 -2.34803,-0.15336 -3.16828,-0.46095 -0.82025,-0.28709 -1.43575,-0.82066 -1.84588,-1.5999 -0.38962,-0.75874 -0.584462,-1.83535 -0.584462,-3.22978 v -5.84409 c 0,-0.75873 -0.0819,-1.34325 -0.24598,-1.75338 -0.16405,-0.41012 -0.44082,-0.70737 -0.83044,-0.89193 -0.38962,-0.20506 -0.93318,-0.35894 -1.63039,-0.46147 v -0.86145 c 0.69721,-0.10253 1.24077,-0.2459 1.63039,-0.43046 0.38962,-0.20506 0.66639,-0.51282 0.83044,-0.92294 0.16405,-0.41013 0.24598,-0.99414 0.24598,-1.75287 v -5.8136 c 0,-1.39443 0.194842,-2.47104 0.584462,-3.22978 0.41013,-0.75873 1.02563,-1.28181 1.84588,-1.56889 0.82025,-0.3076 1.87639,-0.46147 3.16828,-0.46147 z m 47.40021,0 c 1.2919,0 2.34751,0.15387 3.16777,0.46147 0.82025,0.28708 1.42525,0.81016 1.81487,1.56889 0.41013,0.75874 0.61547,1.83535 0.61547,3.22978 v 5.8136 c 0,0.75873 0.0819,1.34274 0.24598,1.75287 0.16404,0.41012 0.44082,0.71788 0.83044,0.92294 0.41012,0.18456 0.95368,0.32793 1.63039,0.43046 v 0.86145 c -0.67671,0.10253 -1.22027,0.25641 -1.63039,0.46147 -0.38962,0.18456 -0.6664,0.48181 -0.83044,0.89193 -0.16405,0.41013 -0.24598,0.99465 -0.24598,1.75338 v 5.84409 c 0,1.39443 -0.20534,2.47104 -0.61547,3.22978 -0.38962,0.77924 -0.99462,1.31281 -1.81487,1.5999 -0.82026,0.30759 -1.87587,0.46095 -3.16777,0.46095 v -1.04541 c 1.08683,0 1.8452,-0.28727 2.27583,-0.86145 0.45114,-0.57417 0.67696,-1.43546 0.67696,-2.58382 v -5.87509 c 0,-0.82025 0.0714,-1.50718 0.21498,-2.06086 0.14354,-0.55366 0.44131,-1.00479 0.89245,-1.3534 0.45114,-0.36912 1.11759,-0.64589 1.99936,-0.83044 v -0.12299 c -0.88177,-0.18457 -1.54822,-0.45135 -1.99936,-0.79995 -0.45114,-0.34861 -0.74891,-0.79974 -0.89245,-1.35341 -0.14355,-0.57417 -0.21498,-1.26111 -0.21498,-2.06086 v -5.87509 c 0,-1.12785 -0.22582,-1.96865 -0.67696,-2.52233 -0.43063,-0.57417 -1.189,-0.86093 -2.27583,-0.86093 z m -39.58776,0.76894 c 0.57417,0 1.06626,0.20535 1.47639,0.61547 0.43063,0.41013 0.64596,0.90221 0.64596,1.47639 0,0.53316 -0.20482,1.02526 -0.61495,1.4764 -0.41013,0.43063 -0.93321,0.64595 -1.5689,0.64595 -0.57418,0 -1.06626,-0.20482 -1.47639,-0.61495 -0.41013,-0.41011 -0.61495,-0.90273 -0.61495,-1.47691 0,-0.59468 0.20482,-1.09675 0.61495,-1.50688 0.43063,-0.41012 0.9432,-0.61547 1.53789,-0.61547 z m 1.29191,7.35149 0.52296,0.185 c -0.0205,0.57418 -0.041,1.1377 -0.0615,1.69137 v 1.69189 1.23041 2.30684 c 0.0205,0.88177 0.031,1.78403 0.031,2.70681 0.0205,0.90228 0.0305,1.71261 0.0305,2.43034 v 1.4764 c 0,1.39443 -0.0614,2.54247 -0.18448,3.44475 -0.12304,0.90227 -0.31788,1.64067 -0.58446,2.21485 -0.26658,0.59468 -0.63579,1.13824 -1.10743,1.63039 -1.31241,1.41495 -2.74772,2.12236 -4.3062,2.12236 -0.82025,0 -1.39427,-0.17437 -1.72237,-0.52297 -0.34861,-0.3281 -0.52297,-0.67681 -0.52297,-1.04593 1e-5,-0.36911 0.14338,-0.69735 0.43047,-0.98444 0.28709,-0.28709 0.70774,-0.43046 1.26142,-0.43046 0.45113,0 0.87128,0.11291 1.2609,0.33848 0.41014,0.24608 0.73836,0.61527 0.98444,1.10743 0.34861,-0.16405 0.61539,-0.47181 0.79995,-0.92295 0.18455,-0.43063 0.30745,-0.93322 0.36897,-1.5074 0.082,-0.57417 0.13297,-1.12772 0.15348,-1.66088 0.0205,-0.53317 0.031,-0.97379 0.031,-1.3224 v -1.78438 -2.49133 c 0,-0.92278 -0.0104,-1.82503 -0.031,-2.70681 v -2.43034 -1.56838 c 0,-0.79975 -0.041,-1.39477 -0.12299,-1.78439 -0.0615,-0.38962 -0.25636,-0.65588 -0.58446,-0.79943 -0.3076,-0.16405 -0.84064,-0.29745 -1.59939,-0.39998 -0.0615,-0.28709 -0.0615,-0.55387 0,-0.79995 0.86127,-0.16405 1.6921,-0.35837 2.49184,-0.58394 0.82026,-0.22557 1.64007,-0.50285 2.46032,-0.83096 z m 11.28871,0.154 c 0.75874,0 1.45617,0.14338 2.09187,0.43046 0.6562,0.26659 1.17927,0.67675 1.56889,1.23042 0.41013,0.53316 0.61495,1.19961 0.61495,1.99936 0,0.49215 -0.01,1.13812 -0.0305,1.93786 -0.0205,0.77925 -0.041,1.62005 -0.0615,2.52233 0,0.88177 -0.0105,1.72258 -0.031,2.52233 -0.0205,0.79974 -0.031,1.44571 -0.031,1.93786 0,0.6562 0.28726,0.98444 0.86144,0.98444 0.36912,0 0.93316,-0.12341 1.69189,-0.36949 0.082,0.10253 0.13297,0.21545 0.15348,0.33848 0.041,0.12304 0.072,0.23595 0.0925,0.33849 -0.51266,0.55366 -1.05621,0.95332 -1.63039,1.1994 -0.55351,0.246 -1.11737,0.36942 -1.69137,0.36949 -1.35312,-1.7e-4 -2.20477,-0.67712 -2.55333,-2.03036 -1.45595,1.39443 -2.94273,2.09186 -4.4602,2.09186 -1.04582,0 -1.93758,-0.30775 -2.6758,-0.92294 -0.71772,-0.6357 -1.07694,-1.50697 -1.07694,-2.61431 0,-2.70685 2.75823,-4.40894 8.27443,-5.10615 v -1.50741 c 0.0205,-0.51265 0.031,-1.05621 0.031,-1.63039 0,-0.71772 -0.26679,-1.27126 -0.79996,-1.66088 -0.51265,-0.41012 -1.13813,-0.61495 -1.87637,-0.61495 -0.53316,0 -0.98429,0.0819 -1.3534,0.24598 0,0.47165 -0.10241,0.95324 -0.30748,1.44539 -0.20506,0.49216 -0.49233,0.91282 -0.86144,1.26143 -0.34862,0.32809 -0.77926,0.49195 -1.29191,0.49195 -0.45114,0 -0.80984,-0.12289 -1.07642,-0.36897 -0.24608,-0.26658 -0.36897,-0.58431 -0.36897,-0.95343 0,-0.49214 0.2253,-0.95377 0.67644,-1.38441 0.47165,-0.45114 1.06667,-0.83031 1.78439,-1.13791 0.71772,-0.3281 1.4661,-0.58439 2.24534,-0.76895 0.77924,-0.18456 1.47615,-0.27698 2.09134,-0.27698 z m 15.90291,0 c 1.49697,0 2.79888,0.32823 3.90622,0.98443 1.10734,0.6562 1.96863,1.55846 2.58382,2.70681 0.61519,1.14836 0.92294,2.45027 0.92294,3.90623 0,1.49696 -0.32823,2.85034 -0.98443,4.06021 -0.6357,1.18937 -1.52745,2.13258 -2.67581,2.82981 -1.14835,0.6767 -2.49175,1.01544 -4.02973,1.01544 -1.49696,0 -2.80938,-0.31774 -3.93722,-0.95343 -1.10734,-0.65621 -1.96863,-1.54848 -2.58383,-2.67633 -0.61518,-1.14835 -0.92294,-2.46076 -0.92294,-3.93722 0,-1.5995 0.31826,-2.99385 0.95395,-4.18321 0.65621,-1.18937 1.56844,-2.11211 2.7373,-2.76831 1.16886,-0.6562 2.51226,-0.98443 4.02973,-0.98443 z m -0.154,1.16892 c -1.3124,0 -2.32756,0.56403 -3.04529,1.69189 -0.69721,1.12784 -1.04541,2.69655 -1.04541,4.70617 0,2.09164 0.33821,3.75278 1.01492,4.98315 0.69722,1.20988 1.73286,1.81436 3.10679,1.81436 1.3124,0 2.31706,-0.57402 3.01429,-1.72237 0.69721,-1.16887 1.04593,-2.72707 1.04593,-4.67517 0,-2.07114 -0.34872,-3.72229 -1.04593,-4.95267 -0.69723,-1.23038 -1.71239,-1.84536 -3.0453,-1.84536 z m -14.64148,6.79803 c -1.88658,0.24608 -3.1885,0.64575 -3.90622,1.19941 -0.69722,0.55368 -1.04593,1.26109 -1.04593,2.12235 0,0.71772 0.18434,1.27126 0.55345,1.66088 0.38962,0.36912 0.87173,0.55398 1.44591,0.55398 0.36911,0 0.77927,-0.0819 1.23042,-0.24598 0.47164,-0.16406 1.02518,-0.38988 1.66088,-0.67697 z" />
  </g>
</svg>
