<?xml version="1.0" encoding="UTF-8" standalone="no"?>
<!-- Created with Inkscape (http://www.inkscape.org/) -->

<svg
   width="179.04945mm"
   height="41.617565mm"
   viewBox="0 0 179.04945 41.617565"
   version="1.1"
   id="svg5"
   inkscape:version="1.1.2 (08b2f3d93c, 2022-04-05)"
   sodipodi:docname="logo.svg"
   xmlns:inkscape="http://www.inkscape.org/namespaces/inkscape"
   xmlns:sodipodi="http://sodipodi.sourceforge.net/DTD/sodipodi-0.dtd"
   xmlns="http://www.w3.org/2000/svg"
   xmlns:svg="http://www.w3.org/2000/svg">
  <sodipodi:namedview
     id="namedview7"
     pagecolor="#ffffff"
     bordercolor="#999999"
     borderopacity="1"
     inkscape:pageshadow="0"
     inkscape:pageopacity="0"
     inkscape:pagecheckerboard="0"
     inkscape:document-units="mm"
     showgrid="false"
     fit-margin-top="0"
     fit-margin-left="0"
     fit-margin-right="0"
     fit-margin-bottom="0"
     inkscape:zoom="0.69664703"
     inkscape:cx="411.25561"
     inkscape:cy="203.11577"
     inkscape:window-width="1920"
     inkscape:window-height="1016"
     inkscape:window-x="0"
     inkscape:window-y="0"
     inkscape:window-maximized="1"
     inkscape:current-layer="text4082" />
  <defs
     id="defs2" />
  <g
     inkscape:label="Layer 1"
     inkscape:groupmode="layer"
     id="layer1"
     transform="translate(-23.342291,-82.059696)">
    <g
       aria-label="Le Memaker"
       id="text4082"
       style="font-size:33.7257px;line-height:1.25;font-family:'DejaVu Sans Mono';-inkscape-font-specification:'DejaVu Sans Mono';stroke-width:0.175654">
      <path
         d="m 29.379191,116.69599 q 4.451792,0 9.004762,-2.3608 -8.397699,-2.29335 -10.35379,-2.29335 -1.956091,0 -2.832959,0.53961 -0.843142,0.53962 -0.843142,1.48394 0,0.91059 1.349028,1.75373 1.382753,0.87687 3.676101,0.87687 z m 17.638541,-1.1804 q 4.890227,1.0455 7.588283,1.0455 2.731782,0 4.654147,-0.87687 1.922364,-0.91059 1.922364,-2.02354 0,-0.80942 -1.180399,-1.34903 -1.1804,-0.57334 -3.440021,-0.57334 -3.574925,0 -6.003175,1.0455 -2.428251,1.0455 -3.541199,2.73178 z M 62.599006,93.627611 q -2.293348,2.124719 -5.665918,5.767095 -3.338844,3.608654 -4.890226,5.193754 0.337257,0.0337 1.045496,0.0337 2.765508,0 5.969449,-1.41648 3.237668,-1.41648 5.699644,-3.37257 2.495702,-1.95609 4.148261,-4.047084 1.686285,-2.124719 1.686285,-3.507473 0,-1.652559 -2.394525,-1.652559 -2.394525,0 -5.598466,3.001587 z m -2.630605,-4.721598 q 0,-2.259622 -3.676101,-2.259622 -2.023542,0 -4.181987,0.978046 -2.124719,0.944319 -3.642376,2.495701 -1.517656,1.551383 -2.461976,3.440022 -0.944319,1.888639 -1.112948,3.743553 0.876868,0.06745 1.41648,0.06745 2.799233,0 5.429837,-0.876868 2.630605,-0.876868 4.384341,-2.158445 1.753737,-1.315302 2.799234,-2.765507 1.045496,-1.483931 1.045496,-2.66433 z m -19.52718,25.058197 q 2.461976,0.60706 5.868272,1.41648 1.112948,-1.82119 3.777278,-2.93414 2.698056,-1.14667 6.812592,-1.14667 2.42825,0 3.844729,0.74196 1.450205,0.74197 1.450205,1.78747 0,1.28157 -2.19217,2.25962 -2.158445,0.97804 -5.665918,0.97804 -3.473747,0 -7.756911,-0.80941 -0.337257,0.80941 -0.337257,1.75373 0,2.19217 2.124719,3.74356 2.158445,1.5851 5.969449,1.5851 l 0.134903,0.26981 q -0.607063,0.0675 -0.910594,0.0675 -3.60865,0 -5.80082,-1.75374 -2.158445,-1.72001 -2.158445,-4.08081 0,-0.91059 0.337257,-1.68628 -3.338844,-0.70824 -6.677689,-1.58511 -5.126306,2.56315 -10.218887,2.56315 -2.529428,0 -4.114535,-1.01177 -1.585108,-0.97804 -1.585108,-2.09099 0,-1.11295 1.214125,-1.78746 1.214125,-0.70824 3.60865,-0.70824 2.42825,0 11.331835,2.19217 4.654147,-2.69806 10.556144,-8.83613 -2.934136,-0.64079 -4.418066,-2.56316 -1.483931,-1.95609 -1.483931,-4.620419 v -0.0675 Q 41.38554,97.337438 40.036512,96.055862 38.72121,94.774285 38.72121,92.885646 q 0,-3.203942 3.305119,-6.542786 3.305118,-3.37257 7.858088,-4.283164 l 0.101177,0.303531 q -4.55297,0.94432 -7.655734,4.08081 -3.102764,3.102765 -3.102764,6.138078 0,1.787462 1.214125,3.035313 1.214125,1.214125 3.709827,1.618833 0.101177,-2.023542 1.045496,-3.979632 0.94432,-1.989817 2.495702,-3.60865 1.585108,-1.65256 3.979633,-2.664331 2.394525,-1.011771 4.789049,-1.011771 4.384341,0 4.384341,2.731782 0,1.315302 -1.112948,2.90041 -1.112948,1.551383 -3.001587,2.934136 -1.854913,1.349028 -4.721598,2.293348 -2.832959,0.910594 -5.969449,0.910594 -0.809417,0 -1.1804,-0.03373 v 0.337257 q 0,2.394526 1.382754,4.114536 1.41648,1.68629 4.283164,2.2259 1.079223,-1.11295 3.170216,-3.4063 2.124719,-2.293348 3.203942,-3.440021 1.112948,-1.146674 2.90041,-2.832959 1.787462,-1.686285 3.001587,-2.495702 3.203942,-2.090994 5.699643,-2.090994 3.203942,0 3.203942,2.12472 0,1.551382 -1.753736,3.777278 -1.720011,2.225896 -4.350616,4.249438 -2.630604,2.02355 -6.171803,3.47375 -3.507473,1.41648 -6.711414,1.41648 -0.809417,0 -1.1804,-0.0337 -6.0369,6.0369 -11.095755,8.83613 z"
         style="font-family:'Monsieur La Doulaise';-inkscape-font-specification:'Monsieur La Doulaise';fill:#ffffff"
         id="path12540" />
      <path
         d="m 71.806059,110.0183 q 0,-0.2698 -0.539611,-0.2698 -0.539611,0 -2.192171,1.04549 -1.652559,1.01177 -2.799233,2.19217 2.259622,-0.37098 3.878456,-1.34902 1.652559,-1.01178 1.652559,-1.61884 z m -6.610237,4.75533 q 0,0.97804 1.349028,0.97804 2.563153,0 6.374157,-2.76551 l 0.06745,0.50589 q -3.979633,2.79923 -6.812592,2.79923 -2.023542,0 -2.023542,-1.68628 0,-1.68629 2.495702,-3.50748 2.529428,-1.82118 5.193758,-1.82118 0.843142,0 0.843142,0.50588 0,0.80942 -1.888639,1.95609 -1.854913,1.11295 -4.890226,1.65256 -0.70824,0.80942 -0.70824,1.38276 z"
         style="font-family:'Monsieur La Doulaise';-inkscape-font-specification:'Monsieur La Doulaise';fill:#ffffff"
         id="path12542" />
      <path
         d="m 86.780224,107.99476 q 2.765507,-0.50589 5.261209,-0.50589 2.529428,0 4.620421,0.43844 0.70824,-1.34903 0.70824,-2.3608 0,-2.12472 -2.799233,-2.12472 -2.394525,0 -4.485518,1.3153 -2.057268,1.28158 -3.305119,3.23767 z m 1.618834,7.65573 q 1.24785,0.47216 3.102764,0.47216 4.890226,0 10.353788,-4.78905 -1.61883,-1.82118 -4.418065,-2.69805 -1.180399,2.12472 -3.574924,4.04708 -2.394525,1.92237 -5.463563,2.96786 z m -3.372571,-3.77727 q 0,-1.65256 0.910594,-3.33885 -3.37257,0.84314 -5.396112,2.42825 -2.023542,1.55138 -2.023542,3.00159 0,1.01177 1.079223,1.65256 1.112948,0.60706 3.170216,0.60706 2.090993,0 4.215712,-0.64079 -1.956091,-1.28157 -1.956091,-3.70982 z m 11.399287,-3.5412 q -2.19217,-0.50589 -4.721598,-0.50589 -2.495702,0 -5.193758,0.57334 -0.978045,1.68628 -0.978045,3.37257 0,2.42825 2.124719,3.57492 2.832959,-1.04549 5.193758,-3.00158 2.360799,-1.9561 3.574924,-4.01336 z m 24.316226,8.33024 q 2.63061,0 4.92396,-1.5851 2.32707,-1.61884 3.50747,-3.60865 1.1804,-1.98982 1.1804,-3.50748 0,-1.92236 -1.68629,-1.92236 -1.78746,0 -3.74355,1.68628 -1.95609,1.65256 -3.27139,4.11454 -1.28158,2.46198 -1.28158,4.62042 v 0.16863 q 0.10118,0.0337 0.37098,0.0337 z m -21.112284,-19.223645 0.03373,0.573337 h 0.472164 q 3.03531,0 5.83455,-0.843142 2.83296,-0.876868 4.68787,-2.158445 1.85491,-1.281577 2.93414,-2.698056 1.11294,-1.450205 1.11294,-2.596879 0,-1.146674 -0.97804,-1.787462 -0.94432,-0.674514 -2.83296,-0.674514 -2.86668,0 -5.53102,1.686285 -2.66433,1.686285 -4.21571,4.047084 -1.517659,2.360799 -1.517659,4.451792 z m 5.497284,-15.311468 0.10118,0.404709 q -5.261207,0.741965 -8.802406,4.013358 -3.507473,3.237667 -3.507473,6.542786 0,1.956091 1.41648,3.271393 1.416479,1.281577 4.249438,1.585108 -0.06745,-0.607063 -0.06745,-0.94432 0,-1.686285 0.944319,-3.473747 0.944322,-1.821188 2.563152,-3.338844 1.61883,-1.551382 4.04708,-2.529428 2.42825,-1.011771 4.78905,-1.011771 2.39453,0 3.4063,0.775691 1.0455,0.741966 1.0455,2.057268 0,1.315302 -1.11295,2.866685 -1.11295,1.517656 -3.03531,2.90041 -1.92237,1.382754 -4.92396,2.293348 -2.96786,0.910593 -6.306702,0.910593 h -0.202354 q 0.741966,2.866684 4.957676,2.866684 2.15845,0 5.16003,-1.28158 3.00159,-1.281572 6.17181,-3.912177 l 0.20235,0.269806 q -1.01177,0.876868 -2.56315,1.95609 -1.55139,1.045497 -4.24944,2.192171 -2.69806,1.14667 -4.89023,1.14667 -4.856498,0 -5.800817,-3.271389 -3.13649,-0.23608 -4.755324,-1.65256 -1.585108,-1.416479 -1.585108,-3.541198 0,-3.406296 3.574924,-6.778866 3.60865,-3.37257 9.173385,-4.31689 z m 21.28092,39.054363 q 1.07922,0 2.29335,-0.40471 l 0.26981,0.16863 q -1.0455,0.57334 -3.03532,0.57334 -3.00159,0 -4.48552,-1.28158 -1.4502,-1.24785 -1.55138,-3.37257 -1.38275,-0.33726 -2.25962,-1.51766 -0.87687,-1.21412 -0.87687,-2.76551 0,-1.5851 0.77569,-3.33884 0.77569,-1.75374 1.85492,-3.33884 1.11294,-1.58511 2.93413,-3.57493 1.82119,-1.98981 3.20394,-3.372568 1.38276,-1.382754 3.50748,-3.237667 2.90041,-2.563153 5.69964,-4.856501 l -0.0675,-0.06745 q -10.25261,6.239255 -25.328,22.461316 l -1.88864,2.46198 q -0.16863,0.10117 -0.30353,0.10117 -0.13491,0 -0.13491,-0.20235 l 0.40471,-0.70824 3.37257,-5.32866 q 3.2714,-5.46357 4.5867,-7.58828 4.62042,-7.520834 8.5326,-11.062033 -0.57334,0 -3.10276,2.360799 l -0.84315,0.809417 q -11.50046,11.837717 -17.2001,16.964027 1.72001,1.82119 1.72001,3.91218 0,2.59688 -2.76551,4.7216 -2.731783,2.15844 -8.094169,2.96786 v -0.37098 q 4.687872,-0.74197 7.183579,-2.83296 2.4957,-2.05727 2.4957,-4.5867 0,-1.68628 -1.1804,-3.23766 -2.731784,2.36079 -5.328663,3.64237 -2.596879,1.28158 -5.193758,1.28158 -2.596879,0 -4.013358,-0.67452 -2.461976,0.70824 -4.856501,0.70824 -2.394525,0 -3.676102,-0.77569 -1.281576,-0.74196 -1.281576,-1.92236 0,-1.61884 2.225896,-3.2714 2.225896,-1.68628 6.171803,-2.52942 1.315303,-2.19217 3.642376,-3.64238 2.360799,-1.48393 5.160032,-1.48393 1.720011,0 2.563153,0.74197 0.843143,0.70824 0.843143,1.92236 0,1.21413 -0.70824,2.56315 3.069035,0.9106 4.789045,2.59688 0.26981,-0.2698 1.85492,-1.72001 1.58511,-1.4502 5.63219,-5.49729 4.08081,-4.047079 6.88004,-6.913764 l 2.76551,-2.832958 q 4.31689,-4.215713 7.38593,-4.890227 0.37098,0 0.37098,0.202354 0,0.168629 -0.20235,0.23608 -1.55138,0.47216 -2.90041,2.090993 -1.34903,1.585108 -3.2714,4.384342 -1.92236,2.799233 -2.93413,4.45179 l -5.80082,9.20712 q 0,0.0337 0.10117,0.0337 l 0.43844,-0.33726 q 6.40788,-6.74514 11.87145,-11.500457 5.49728,-4.789049 11.63536,-8.363974 1.3153,-0.876868 1.48393,-0.876868 0.20236,0 0.20236,0.202354 0,0.202355 -0.0675,0.269806 -0.0675,0.06745 -1.45021,1.146674 -1.34903,1.079222 -2.4957,2.124719 -1.14668,1.045497 -2.02354,1.854913 -0.87687,0.809417 -2.90041,2.799234 -2.02355,1.989816 -3.30512,3.372569 -1.24785,1.34903 -2.96786,3.40629 -1.72001,2.02355 -2.69806,3.57493 -2.42825,3.84473 -2.42825,6.3067 0,1.51766 1.14667,2.49571 0.47216,0.4047 1.11295,0.53961 0,-2.32708 1.34903,-4.89023 1.34903,-2.59688 3.47375,-4.38434 2.15844,-1.78746 4.24944,-1.78746 1.18039,0 1.88863,0.74196 0.74197,0.70824 0.74197,2.02355 0,1.3153 -0.84314,2.83295 -0.80942,1.48393 -2.19217,2.79924 -1.38276,1.3153 -3.44002,2.19217 -2.02355,0.91059 -4.21572,0.91059 l -0.50588,-0.0337 q 0.37098,4.21571 6.00317,4.21571 z"
         style="font-family:'Monsieur La Doulaise';-inkscape-font-specification:'Monsieur La Doulaise';fill:#ffffff"
         id="path12544" />
      <path
         d="m 139.15621,110.0183 q 0,-0.2698 -0.53961,-0.2698 -0.53962,0 -2.19218,1.04549 -1.65255,1.01177 -2.79923,2.19217 2.25962,-0.37098 3.87846,-1.34902 1.65256,-1.01178 1.65256,-1.61884 z m -6.61024,4.75533 q 0,0.97804 1.34903,0.97804 2.56315,0 6.37415,-2.76551 l 0.0675,0.50589 q -3.97964,2.79923 -6.8126,2.79923 -2.02354,0 -2.02354,-1.68628 0,-1.68629 2.4957,-3.50748 2.52943,-1.82118 5.19376,-1.82118 0.84314,0 0.84314,0.50588 0,0.80942 -1.88863,1.95609 -1.85492,1.11295 -4.89023,1.65256 -0.70824,0.80942 -0.70824,1.38276 z"
         style="font-family:'Monsieur La Doulaise';-inkscape-font-specification:'Monsieur La Doulaise';fill:#ffffff"
         id="path12546" />
      <path
         d="m 143.47307,111.40106 q -1.61884,1.14667 -3.4063,2.25962 l -0.10118,-0.47216 3.20395,-2.2259 q 1.65255,-1.1804 2.52942,-1.1804 0.87687,0 0.87687,0.74197 0,1.11295 -1.55138,2.66433 l 0.57334,-0.33726 q 4.62042,-3.00159 5.76709,-3.00159 1.14667,0 1.14667,0.60707 0,0.67451 -1.07922,2.12471 3.84473,-2.66433 6.17181,-2.66433 0.91059,0 0.91059,0.7757 0,0.77569 -0.67451,1.61883 -0.67452,0.80942 -1.48394,1.41648 -2.15844,1.55138 -2.15844,1.95609 0,0.23608 0.37098,0.23608 0.40471,0 1.3153,-0.40471 0.9106,-0.40471 1.61884,-0.80942 0.70824,-0.43843 1.68628,-1.04549 1.01177,-0.64079 1.07923,-0.67452 l 0.0674,0.50589 q -4.55297,3.03531 -6.37416,3.03531 -0.87687,0 -0.87687,-0.84314 0,-0.57334 0.70824,-1.34903 0.74197,-0.80942 1.58511,-1.48393 2.32707,-1.75374 2.32707,-2.32707 0,-0.16863 -0.37098,-0.16863 -1.24785,0 -3.70983,1.34903 -2.46197,1.34902 -5.46356,4.38434 -0.20235,0.20235 -0.87687,0.20235 -0.64079,0 -0.64079,-0.30353 0,-0.1349 1.1804,-1.24785 3.60865,-3.4063 3.60865,-4.14826 0,-0.20236 -0.23608,-0.20236 -0.77569,0 -3.40629,1.72002 -2.59688,1.68628 -5.32866,3.9459 -0.40471,0.23608 -0.64079,0.23608 -1.0455,0 -1.0455,-0.23608 0,-0.1349 0.91059,-0.94432 0.94432,-0.80941 2.49571,-2.42825 1.5851,-1.65256 1.5851,-2.29335 0,-0.1349 -0.16862,-0.1349 -0.60707,0 -2.12472,1.14668 z"
         style="font-family:'Monsieur La Doulaise';-inkscape-font-specification:'Monsieur La Doulaise';fill:#ffffff"
         id="path12548" />
      <path
         d="m 160.43704,115.75167 q 1.28158,0 3.4063,-1.28158 2.15844,-1.3153 3.57492,-2.52942 1.45021,-1.21413 1.45021,-1.41648 0,-0.20236 -0.50589,-0.33726 -0.47216,-0.1349 -1.3153,-0.1349 -0.84314,0 -2.22589,0.67451 -1.38276,0.64079 -2.39453,1.55138 -1.01177,0.9106 -1.68628,1.78747 -0.67452,0.87686 -0.67452,1.28157 0,0.40471 0.37098,0.40471 z m 9.03849,-5.66592 q 0.67452,-0.53961 0.74197,-0.53961 0.91059,0.10118 0.94432,0.16863 0.0337,0.0337 0.0337,0.10118 0,0.0674 -0.2698,0.43843 -0.26981,0.33726 -1.58511,1.65256 -3.27139,3.20394 -3.27139,3.87846 0,0.2698 0.23608,0.2698 1.61883,0 6.07062,-3.06904 l 0.0674,0.50589 q -4.48551,2.93413 -6.34043,2.93413 -0.91059,0 -0.91059,-0.84314 0,-0.87687 1.04549,-2.25962 -3.97963,2.93414 -6.20552,2.96786 -0.80942,0 -0.80942,-0.97804 0,-1.75374 2.2259,-3.74356 2.25962,-1.98981 5.93572,-1.98981 1.21412,0 2.09099,0.50588 z"
         style="font-family:'Monsieur La Doulaise';-inkscape-font-specification:'Monsieur La Doulaise';fill:#ffffff"
         id="path12550" />
      <path
         d="m 191.80192,97.16881 q 0,-0.23608 -0.33726,-0.23608 -1.34903,0 -6.67769,4.82278 -5.29493,4.82277 -9.51065,9.34201 4.85651,-3.13649 10.69105,-7.99299 5.83455,-4.856498 5.83455,-5.93572 z m -13.28793,15.85108 0.33726,0.70824 q 0,0.2698 -0.74197,0.97804 -0.74196,0.70824 -0.74196,0.97805 0,0.23608 0.57333,0.23608 0.60707,0 1.51766,-0.40471 0.9106,-0.40471 1.61883,-0.80942 0.70824,-0.43843 1.68629,-1.04549 1.01177,-0.64079 1.07922,-0.67452 l 0.0675,0.50589 q -1.24785,0.91059 -3.33884,1.98982 -2.09099,1.04549 -3.27139,1.04549 -1.1804,0 -1.1804,-1.04549 0,-0.47216 0.77569,-1.1804 0.80941,-0.74197 0.80941,-0.9106 0,-0.16863 -0.16862,-0.16863 -0.67452,-0.10117 -0.67452,-0.50588 0,-0.13491 0.10118,-0.13491 h 0.40471 q 1.88864,0 3.17021,-0.84314 1.28158,-0.84314 1.28158,-1.48393 0,-0.23608 -0.23608,-0.23608 -2.46198,0 -9.81418,5.22749 l -1.21412,1.01177 q -0.13491,0.1349 -0.67452,0.1349 -0.53961,0 -0.53961,-0.20236 0,-0.10117 0.1349,-0.2698 3.5412,-3.97963 7.92554,-8.33025 4.38434,-4.35061 8.56633,-7.75691 4.21571,-3.440021 5.73337,-3.440021 0.80942,0 0.80942,0.505885 0,1.079223 -3.4063,4.181986 -3.37257,3.06904 -7.58828,6.1718 -4.21571,3.10277 -7.25103,4.92396 -1.14667,1.3153 -1.3153,1.65256 1.78746,-1.24786 2.86669,-1.92237 1.07922,-0.70824 2.83295,-1.51766 1.78747,-0.84314 3.03532,-0.84314 1.24785,0 1.24785,1.01177 0,1.01177 -1.34903,1.72001 -1.3153,0.67452 -2.59688,0.67452 -0.2698,0 -0.37098,0 -0.10118,-0.0337 -0.10118,0.0675 z"
         style="font-family:'Monsieur La Doulaise';-inkscape-font-specification:'Monsieur La Doulaise';fill:#ffffff"
         id="path12552" />
      <path
         d="m 190.75636,110.0183 q 0,-0.2698 -0.53961,-0.2698 -0.53961,0 -2.19217,1.04549 -1.65256,1.01177 -2.79924,2.19217 2.25962,-0.37098 3.87846,-1.34902 1.65256,-1.01178 1.65256,-1.61884 z m -6.61024,4.75533 q 0,0.97804 1.34903,0.97804 2.56315,0 6.37416,-2.76551 l 0.0674,0.50589 q -3.97964,2.79923 -6.81259,2.79923 -2.02355,0 -2.02355,-1.68628 0,-1.68629 2.49571,-3.50748 2.52942,-1.82118 5.19375,-1.82118 0.84315,0 0.84315,0.50588 0,0.80942 -1.88864,1.95609 -1.85492,1.11295 -4.89023,1.65256 -0.70824,0.80942 -0.70824,1.38276 z"
         style="font-family:'Monsieur La Doulaise';-inkscape-font-specification:'Monsieur La Doulaise';fill:#ffffff"
         id="path12554" />
      <path
         d="m 196.42225,110.89517 1.5851,-0.20235 q 0.40471,0 0.64079,0.2698 0.23608,0.26981 0.23608,0.64079 0,0.74197 -1.04549,1.61883 -1.0455,0.87687 -2.091,1.65256 -1.01177,0.77569 -1.01177,1.24785 0,0.26981 0.43844,0.26981 1.4502,0 4.41806,-1.68629 1.28158,-0.70824 2.73178,-1.72001 l 0.0675,0.50589 q -1.14668,0.74196 -2.56316,1.51766 -0.80942,0.50588 -2.3608,1.14667 -1.55138,0.67451 -2.56315,0.67451 -1.01177,0 -1.01177,-0.91059 0,-1.0455 1.07922,-1.95609 1.07922,-0.94432 2.12472,-1.55138 1.07922,-0.64079 1.07922,-0.97805 0,-0.10118 -0.23608,-0.10118 l -1.88864,0.16863 q -0.53961,0 -0.97804,-0.10117 -1.61884,1.14667 -3.4063,2.25962 l -0.10117,-0.47216 3.20394,-2.2259 q 0.0337,-0.64079 0.80941,-1.28158 0.77569,-0.64078 1.31531,-0.64078 0.53961,0 0.53961,0.30353 0,0.2698 -0.64079,0.70824 -0.64079,0.43843 -0.64079,0.64079 0,0.20235 0.26981,0.20235 z"
         style="font-family:'Monsieur La Doulaise';-inkscape-font-specification:'Monsieur La Doulaise';fill:#ffffff"
         id="path12556" />
    </g>
  </g>
</svg>
