<?xml version="1.0" encoding="UTF-8" standalone="no"?>
<!-- Created with Inkscape (http://www.inkscape.org/) -->

<svg
   width="236.06793mm"
   height="34.539917mm"
   viewBox="0 0 236.06793 34.539917"
   version="1.1"
   id="svg5"
   inkscape:version="1.1.2 (08b2f3d93c, 2022-04-05)"
   sodipodi:docname="logo.svg"
   xmlns:inkscape="http://www.inkscape.org/namespaces/inkscape"
   xmlns:sodipodi="http://sodipodi.sourceforge.net/DTD/sodipodi-0.dtd"
   xmlns="http://www.w3.org/2000/svg"
   xmlns:svg="http://www.w3.org/2000/svg">
  <sodipodi:namedview
     id="namedview7"
     pagecolor="#ffffff"
     bordercolor="#999999"
     borderopacity="1"
     inkscape:pageshadow="0"
     inkscape:pageopacity="0"
     inkscape:pagecheckerboard="0"
     inkscape:document-units="mm"
     showgrid="false"
     fit-margin-top="0"
     fit-margin-left="0"
     fit-margin-right="0"
     fit-margin-bottom="0"
     inkscape:zoom="0.35218777"
     inkscape:cx="367.70158"
     inkscape:cy="-1.4196972"
     inkscape:window-width="1920"
     inkscape:window-height="1016"
     inkscape:window-x="0"
     inkscape:window-y="0"
     inkscape:window-maximized="1"
     inkscape:current-layer="layer1" />
  <defs
     id="defs2" />
  <g
     inkscape:label="Layer 1"
     inkscape:groupmode="layer"
     id="layer1"
     transform="translate(12.076613,-117.42108)">
    <path
       id="path868"
       style="color:#000000;fill:#ffffff;stroke-width:0.403913;stroke-linecap:round;stroke-linejoin:round;-inkscape-stroke:none;paint-order:markers stroke fill"
       d="M 57.339844 0 A 6.0593072 6.0593072 0 0 0 54.310547 0.8125 L 3.0292969 30.417969 A 6.0593072 6.0593072 0 0 0 0 35.666016 L 0 94.878906 A 6.0593072 6.0593072 0 0 0 3.0292969 100.12695 L 54.310547 129.73242 A 6.0593072 6.0593072 0 0 0 60.369141 129.73242 L 111.65039 100.12695 A 6.0593072 6.0593072 0 0 0 114.67969 94.878906 L 114.67969 71.333984 L 152.5 71.333984 L 152.5 83.855469 L 174.1875 71.333984 L 205.20117 71.333984 C 208.13775 90.389072 224.6908 105.07617 244.54102 105.07617 C 266.45067 105.07617 284.3379 87.183094 284.33789 65.273438 C 284.3379 43.363781 266.45067 25.470703 244.54102 25.470703 C 224.6908 25.470703 208.13775 40.157803 205.20117 59.212891 L 174.19336 59.212891 L 152.5 46.6875 L 152.5 59.212891 L 114.67969 59.212891 L 114.67969 35.666016 A 6.0593072 6.0593072 0 0 0 111.65039 30.417969 L 60.369141 0.8125 A 6.0593072 6.0593072 0 0 0 57.339844 0 z M 57.339844 13.054688 L 102.56055 39.164062 L 102.56055 91.380859 L 57.339844 117.49023 L 12.117188 91.380859 L 12.117188 39.164062 L 57.339844 13.054688 z M 244.54102 37.591797 C 259.90195 37.591797 272.22266 49.912493 272.22266 65.273438 C 272.22266 80.634345 259.90195 92.955116 244.54102 92.955078 C 229.18008 92.955078 216.85155 80.634345 216.85156 65.273438 C 216.85155 49.912493 229.18008 37.591797 244.54102 37.591797 z M 57.339844 46.636719 A 18.635784 18.635784 0 0 0 38.703125 65.271484 A 18.635784 18.635784 0 0 0 57.339844 83.908203 A 18.635784 18.635784 0 0 0 75.974609 65.271484 A 18.635784 18.635784 0 0 0 57.339844 46.636719 z M 244.53906 56.875 A 8.3968384 8.3968384 0 0 0 236.14062 65.271484 A 8.3968384 8.3968384 0 0 0 244.53906 73.669922 A 8.3968384 8.3968384 0 0 0 252.93555 65.271484 A 8.3968384 8.3968384 0 0 0 244.53906 56.875 z "
       transform="matrix(0.26458333,0,0,0.26458333,-12.076613,117.42108)" />
    <g
       aria-label="livenumbers"
       id="text7968"
       style="font-size:26.3596px;line-height:1.25;font-family:'DejaVu Sans Mono';-inkscape-font-specification:'DejaVu Sans Mono';fill:#ffffff;stroke-width:0.658989">
      <path
         d="M 71.21136,143.71918 H 66.466632 V 125.26746 H 71.21136 Z"
         style="font-weight:900;font-family:'Maven Pro';-inkscape-font-specification:'Maven Pro Heavy'"
         id="path824" />
      <path
         d="m 74.427211,143.71918 v -13.15344 h 4.797447 l 0.05272,13.15344 z m -0.05272,-14.99862 v -3.4531 h 4.902886 v 3.4531 z"
         style="font-weight:900;font-family:'Maven Pro';-inkscape-font-specification:'Maven Pro Heavy'"
         id="path826" />
      <path
         d="m 86.948014,143.71918 -5.561875,-13.41704 h 5.192841 l 3.716704,9.75305 h -1.186182 l 3.084073,-9.75305 h 5.113762 l -5.561875,13.41704 z"
         style="font-weight:900;font-family:'Maven Pro';-inkscape-font-specification:'Maven Pro Heavy'"
         id="path828" />
      <path
         d="m 104.92522,144.11457 q -2.08241,0 -3.69034,-0.84351 -1.607938,-0.8435 -2.504164,-2.37236 -0.896227,-1.55522 -0.896227,-3.61127 0,-3.53218 1.792453,-5.50915 1.818808,-2.00333 5.245558,-2.00333 2.24057,0 3.63763,0.94894 1.39706,0.94895 2.05605,2.8732 0.68535,1.89789 0.65899,4.74473 h -9.99029 l -0.63263,-2.82048 h 6.51082 l -0.50083,1.6343 q -0.0264,-2.18785 -0.47448,-3.005 -0.42175,-0.8435 -1.50249,-0.8435 -0.50084,0 -0.97531,0.34267 -0.47447,0.31632 -0.76443,1.05438 -0.28995,0.71171 -0.28995,1.92425 0,1.71338 0.81714,2.63596 0.81715,0.92259 2.79412,0.92259 0.65899,0 1.34434,-0.18452 0.68535,-0.18451 1.29162,-0.39539 0.60627,-0.23724 1.00167,-0.34268 v 3.9803 q -0.92259,0.34268 -2.10877,0.60628 -1.18618,0.26359 -2.82048,0.26359 z"
         style="font-weight:900;font-family:'Maven Pro';-inkscape-font-specification:'Maven Pro Heavy'"
         id="path830" />
      <path
         d="m 113.5975,131.46196 q 0.44811,-0.23723 1.31798,-0.50083 0.86987,-0.28995 1.95061,-0.52719 1.1071,-0.23724 2.21421,-0.3954 1.1071,-0.15815 2.00332,-0.15815 1.73974,0 3.05772,0.42175 1.31798,0.39539 2.05605,1.42342 0.73807,1.00166 0.73807,2.84684 v 9.14678 h -4.79745 v -7.98696 q 0,-0.52719 -0.15816,-0.89623 -0.1318,-0.39539 -0.42175,-0.60627 -0.2636,-0.23724 -0.68535,-0.34267 -0.3954,-0.10544 -0.92259,-0.10544 -0.50083,0 -1.00166,0.15816 -0.47448,0.13179 -0.55355,0.26359 v 9.51582 h -4.79745 z"
         style="font-weight:900;font-family:'Maven Pro';-inkscape-font-specification:'Maven Pro Heavy'"
         id="path832" />
      <path
         d="m 136.71485,144.11457 q -1.92425,0 -3.42675,-0.55355 -1.47613,-0.57991 -2.346,-1.79245 -0.84351,-1.2389 -0.84351,-3.24223 v -8.2242 h 4.79745 v 7.93424 q 0,0.94895 0.42175,1.44978 0.44812,0.47447 1.42342,0.47447 1.00167,0 1.42342,-0.47447 0.42175,-0.50083 0.42175,-1.44978 v -7.93424 h 4.45478 v 8.2242 q 0,2.97863 -1.71338,4.29661 -1.71337,1.29162 -4.61293,1.29162 z"
         style="font-weight:900;font-family:'Maven Pro';-inkscape-font-specification:'Maven Pro Heavy'"
         id="path834" />
      <path
         d="m 159.27863,134.5724 v 9.14678 h -4.79745 v -7.98696 q 0,-0.52719 -0.15816,-0.89623 -0.1318,-0.39539 -0.42175,-0.60627 -0.2636,-0.23724 -0.68535,-0.34267 -0.3954,-0.10544 -0.92259,-0.10544 -0.50083,0 -0.86986,0.15816 -0.34268,0.13179 -0.42176,0.26359 v 9.51582 h -4.79745 v -12.25722 q 0.44812,-0.23723 1.31798,-0.50083 0.86987,-0.28995 1.95061,-0.52719 1.10711,-0.23724 2.21421,-0.3954 1.1071,-0.15815 2.00333,-0.15815 1.73973,0 2.97864,0.42175 1.26526,0.39539 1.92425,1.42342 0.68535,1.00166 0.68535,2.84684 z m -4.69201,-2.05605 q 0.79079,-0.73807 2.05605,-1.31798 1.29162,-0.60627 2.71503,-0.94895 1.42342,-0.36903 2.60961,-0.36903 1.73973,0 2.97863,0.42175 1.26526,0.39539 1.92425,1.42342 0.68535,1.00166 0.68535,2.84684 v 9.14678 h -4.79745 v -7.98696 q 0,-0.52719 -0.15815,-0.89623 -0.1318,-0.39539 -0.42176,-0.60627 -0.26359,-0.23724 -0.68535,-0.34267 -0.39539,-0.10544 -0.92258,-0.10544 -0.50084,0 -0.86987,0.15816 -0.34268,0.13179 -0.42175,0.26359 z"
         style="font-weight:900;font-family:'Maven Pro';-inkscape-font-specification:'Maven Pro Heavy'"
         id="path836" />
      <path
         d="m 177.22947,144.11457 q -1.15983,0 -2.31965,-0.15816 -1.15982,-0.15815 -2.10877,-0.55355 -0.94894,-0.42175 -1.52885,-1.15982 -0.55355,-0.76443 -0.55355,-1.97697 v -14.62958 h 4.692 v 7.35433 l -0.79078,-1.47614 q 0.44811,-0.68535 1.18618,-1.02802 0.73807,-0.36904 1.47614,-0.50083 0.76442,-0.1318 1.2389,-0.1318 2.89955,0 4.45477,1.79245 1.58158,1.76609 1.58158,5.351 0,1.89789 -0.50084,3.26859 -0.47447,1.34434 -1.42342,2.18785 -0.94894,0.8435 -2.31964,1.26526 -1.34434,0.39539 -3.08407,0.39539 z m 0,-3.92758 q 0.8435,0 1.42342,-0.31631 0.57991,-0.34268 0.86986,-0.97531 0.28996,-0.63263 0.28996,-1.55522 0,-1.52885 -0.3954,-2.31964 -0.36903,-0.81715 -0.9753,-1.1071 -0.60627,-0.31632 -1.29162,-0.31632 -0.3954,0 -0.89623,0.10544 -0.47447,0.0791 -0.84351,0.28995 v 5.00833 q 0,0.42175 0.18452,0.68535 0.21088,0.26359 0.60627,0.39539 0.42176,0.10544 1.02803,0.10544 z"
         style="font-weight:900;font-family:'Maven Pro';-inkscape-font-specification:'Maven Pro Heavy'"
         id="path838" />
      <path
         d="m 193.22974,144.11457 q -2.08241,0 -3.69034,-0.84351 -1.60794,-0.8435 -2.50416,-2.37236 -0.89623,-1.55522 -0.89623,-3.61127 0,-3.53218 1.79245,-5.50915 1.81881,-2.00333 5.24556,-2.00333 2.24057,0 3.63763,0.94894 1.39706,0.94895 2.05605,2.8732 0.68535,1.89789 0.65899,4.74473 h -9.99029 l -0.63263,-2.82048 h 6.51082 l -0.50083,1.6343 q -0.0264,-2.18785 -0.47448,-3.005 -0.42175,-0.8435 -1.50249,-0.8435 -0.50084,0 -0.97531,0.34267 -0.47447,0.31632 -0.76443,1.05438 -0.28995,0.71171 -0.28995,1.92425 0,1.71338 0.81714,2.63596 0.81715,0.92259 2.79412,0.92259 0.65899,0 1.34434,-0.18452 0.68535,-0.18451 1.29162,-0.39539 0.60627,-0.23724 1.00167,-0.34268 v 3.9803 q -0.92259,0.34268 -2.10877,0.60628 -1.18618,0.26359 -2.82048,0.26359 z"
         style="font-weight:900;font-family:'Maven Pro';-inkscape-font-specification:'Maven Pro Heavy'"
         id="path840" />
      <path
         d="m 201.90201,143.71918 v -11.86182 q 0.39539,-0.3954 1.34434,-0.84351 0.97531,-0.47447 2.18785,-0.81715 1.21254,-0.34267 2.37236,-0.34267 1.68702,0 2.6096,0.23723 0.92259,0.23724 1.3707,0.60627 v 3.40039 q -0.36903,-0.10544 -1.08074,-0.18451 -0.68535,-0.10544 -1.47614,-0.1318 -0.79079,-0.0527 -1.47614,-0.0527 -0.68535,0 -1.05438,0.0527 v 9.93757 z"
         style="font-weight:900;font-family:'Maven Pro';-inkscape-font-specification:'Maven Pro Heavy'"
         id="path842" />
      <path
         d="m 217.55958,144.11457 q -1.42342,0 -2.4778,-0.31631 -1.02803,-0.31632 -1.84518,-0.60627 v -4.05938 q 0.42176,0.34267 1.13347,0.73807 0.71171,0.39539 1.60793,0.68535 0.89623,0.26359 1.87153,0.26359 0.76443,0 0.94895,-0.21088 0.21088,-0.23723 0.21088,-0.50083 0,-0.31631 -0.3954,-0.52719 -0.39539,-0.23724 -1.02802,-0.39539 -0.63263,-0.15816 -1.34434,-0.2636 -0.57991,-0.10544 -1.15982,-0.36903 -0.55355,-0.28996 -1.00167,-0.79079 -0.44811,-0.50083 -0.71171,-1.2389 -0.26359,-0.73807 -0.26359,-1.71338 0,-1.39706 0.52719,-2.31964 0.55355,-0.92259 1.42342,-1.47614 0.89622,-0.55355 1.89789,-0.79079 1.02802,-0.23723 1.95061,-0.21087 1.84517,0.0791 2.84684,0.39539 1.00166,0.28995 1.73973,0.81715 l 0.0264,3.55854 q -0.84351,-0.47447 -1.79245,-0.94894 -0.92259,-0.47448 -2.08241,-0.47448 -0.97531,0 -1.26526,0.2636 -0.2636,0.2636 -0.2636,0.63263 0,0.39539 0.23724,0.63263 0.26359,0.21088 0.65899,0.34268 0.42175,0.13179 0.92258,0.26359 0.65899,0.15816 1.34434,0.36904 0.71171,0.18451 1.31798,0.60627 0.63263,0.42175 1.00167,1.18618 0.39539,0.73807 0.39539,2.00333 -0.0527,1.68701 -0.94894,2.66232 -0.86987,0.9753 -2.31965,1.39706 -1.44978,0.39539 -3.16315,0.39539 z"
         style="font-weight:900;font-family:'Maven Pro';-inkscape-font-specification:'Maven Pro Heavy'"
         id="path844" />
    </g>
  </g>
</svg>
