<?xml version="1.0" encoding="UTF-8" standalone="no"?>
<!DOCTYPE svg PUBLIC "-//W3C//DTD SVG 1.1//EN" "http://www.w3.org/Graphics/SVG/1.1/DTD/svg11.dtd">
<svg width="100%" height="100%" viewBox="0 0 1036 199" version="1.1" xmlns="http://www.w3.org/2000/svg" xmlns:xlink="http://www.w3.org/1999/xlink" xml:space="preserve" xmlns:serif="http://www.serif.com/" style="fill-rule:evenodd;clip-rule:evenodd;stroke-linejoin:round;stroke-miterlimit:2;">
    <g id="g22" transform="matrix(1,0,0,1,-410.608,-206.986)">
        <path id="path2" d="M509.432,260.266C500.762,260.266 494.813,262.971 491.441,268.165C487.19,262.981 480.369,260.266 470.84,260.266L459.32,260.266C453.926,260.266 449.662,261.424 446.48,263.663C446.48,263.664 446.48,263.266 446.48,263.266C446.48,261.609 445.137,260.266 443.48,260.266L423.608,260.266C421.951,260.266 420.608,261.609 420.608,263.266L420.608,402.946C420.608,404.602 421.951,405.946 423.608,405.946L443.48,405.946C445.137,405.946 446.48,404.602 446.48,402.946L446.48,290.626C446.48,287.827 446.786,285.802 447.905,284.683C448.994,283.594 450.823,283.258 453.272,283.258L464.792,283.258C466.432,283.258 467.776,283.364 468.821,283.61C469.312,283.725 469.713,283.782 469.925,284.013C470.172,284.282 470.271,284.733 470.394,285.294C470.62,286.323 470.72,287.621 470.72,289.186L470.72,402.946C470.72,404.602 472.063,405.946 473.72,405.946L493.592,405.946C495.249,405.946 496.592,404.602 496.592,402.946L496.592,290.626C496.592,287.827 496.898,285.802 498.017,284.683C499.106,283.594 500.935,283.258 503.384,283.258L514.904,283.258C516.544,283.258 517.888,283.364 518.933,283.61C519.424,283.725 519.825,283.782 520.037,284.013C520.284,284.282 520.383,284.733 520.506,285.294C520.732,286.323 520.832,287.621 520.832,289.186L520.832,402.946C520.832,404.602 522.175,405.946 523.832,405.946L543.704,405.946C545.361,405.946 546.704,404.602 546.704,402.946L546.704,286.018C546.704,277.468 544.412,271.107 540.137,266.832C535.862,262.557 529.502,260.266 520.952,260.266L509.432,260.266ZM509.432,263.266L520.952,263.266C536.12,263.266 543.704,270.85 543.704,286.018L543.704,402.946L523.832,402.946L523.832,289.186C523.832,285.538 523.304,283.138 522.248,281.986C521.192,280.834 518.744,280.258 514.904,280.258L503.384,280.258C499.928,280.258 497.432,281.026 495.896,282.562C494.36,284.098 493.592,286.786 493.592,290.626L493.592,402.946L473.72,402.946L473.72,289.186C473.72,285.538 473.192,283.138 472.136,281.986C471.08,280.834 468.632,280.258 464.792,280.258L453.272,280.258C449.816,280.258 447.32,281.026 445.784,282.562C444.248,284.098 443.48,286.786 443.48,290.626L443.48,402.946L423.608,402.946L423.608,263.266L443.48,263.266L443.48,272.77C445.592,266.434 450.872,263.266 459.32,263.266L470.84,263.266C481.784,263.266 488.792,267.106 491.864,274.786C493.784,267.106 499.64,263.266 509.432,263.266Z" style="fill:rgb(36,36,36);"/>
        <path id="path4" d="M588.056,405.946C589.713,405.946 591.056,404.602 591.056,402.946L591.056,263.266C591.056,261.609 589.713,260.266 588.056,260.266L568.184,260.266C566.527,260.266 565.184,261.609 565.184,263.266L565.184,402.946C565.184,404.602 566.527,405.946 568.184,405.946L588.056,405.946ZM588.056,402.946L568.184,402.946L568.184,263.266L588.056,263.266L588.056,402.946ZM564.608,233.314C564.608,234.97 565.951,236.314 567.608,236.314L588.632,236.314C590.289,236.314 591.632,234.97 591.632,233.314L591.632,209.986C591.632,208.329 590.289,206.986 588.632,206.986L567.608,206.986C565.951,206.986 564.608,208.329 564.608,209.986L564.608,233.314ZM567.608,233.314L567.608,209.986L588.632,209.986L588.632,233.314L567.608,233.314Z" style="fill:rgb(36,36,36);"/>
        <path id="path6" d="M649.688,260.266C644.294,260.266 640.03,261.424 636.848,263.663C636.848,263.664 636.848,263.266 636.848,263.266C636.848,261.609 635.505,260.266 633.848,260.266L613.976,260.266C612.319,260.266 610.976,261.609 610.976,263.266L610.976,402.946C610.976,404.602 612.319,405.946 613.976,405.946L633.848,405.946C635.505,405.946 636.848,404.602 636.848,402.946L636.848,290.626C636.848,287.827 637.154,285.802 638.273,284.683C639.362,283.594 641.191,283.258 643.64,283.258L655.16,283.258C656.8,283.258 658.144,283.364 659.189,283.61C659.68,283.725 660.081,283.782 660.293,284.013C660.54,284.282 660.639,284.733 660.762,285.294C660.988,286.323 661.088,287.621 661.088,289.186L661.088,402.946C661.088,404.602 662.431,405.946 664.088,405.946L683.96,405.946C685.617,405.946 686.96,404.602 686.96,402.946L686.96,286.018C686.96,277.468 684.668,271.107 680.393,266.832C676.118,262.557 669.758,260.266 661.208,260.266L649.688,260.266ZM649.688,263.266L661.208,263.266C676.376,263.266 683.96,270.85 683.96,286.018L683.96,402.946L664.088,402.946L664.088,289.186C664.088,285.538 663.56,283.138 662.504,281.986C661.448,280.834 659,280.258 655.16,280.258L643.64,280.258C640.184,280.258 637.688,281.026 636.152,282.562C634.616,284.098 633.848,286.786 633.848,290.626L633.848,402.946L613.976,402.946L613.976,263.266L633.848,263.266L633.848,272.77C635.96,266.434 641.24,263.266 649.688,263.266Z" style="fill:rgb(36,36,36);"/>
        <path id="path8" d="M759.992,260.266C758.335,260.266 756.992,261.609 756.992,263.266L756.992,375.586C756.992,378.384 756.686,380.409 755.567,381.528C754.478,382.617 752.649,382.954 750.2,382.954L738.68,382.954C737.116,382.954 735.818,382.854 734.789,382.628C734.227,382.504 733.777,382.405 733.507,382.158C733.276,381.946 733.22,381.545 733.104,381.054C732.858,380.009 732.752,378.665 732.752,377.026L732.752,263.266C732.752,261.609 731.409,260.266 729.752,260.266L709.88,260.266C708.223,260.266 706.88,261.609 706.88,263.266L706.88,380.194C706.88,388.743 709.172,395.104 713.447,399.379C717.722,403.654 724.082,405.946 732.632,405.946L744.152,405.946C749.546,405.946 753.81,404.787 756.992,402.548C756.992,402.547 756.992,402.946 756.992,402.946C756.992,404.602 758.335,405.946 759.992,405.946L779.864,405.946C781.521,405.946 782.864,404.602 782.864,402.946L782.864,263.266C782.864,261.609 781.521,260.266 779.864,260.266L759.992,260.266ZM759.992,263.266L779.864,263.266L779.864,402.946L759.992,402.946L759.992,393.442C757.88,399.778 752.6,402.946 744.152,402.946L732.632,402.946C717.464,402.946 709.88,395.362 709.88,380.194L709.88,263.266L729.752,263.266L729.752,377.026C729.752,380.866 730.328,383.314 731.48,384.37C732.632,385.426 735.032,385.954 738.68,385.954L750.2,385.954C753.656,385.954 756.152,385.186 757.688,383.65C759.224,382.114 759.992,379.426 759.992,375.586L759.992,263.266Z" style="fill:rgb(36,36,36);"/>
        <path id="path10" d="M891.608,260.266C882.938,260.266 876.989,262.971 873.617,268.165C869.366,262.981 862.545,260.266 853.016,260.266L841.496,260.266C836.102,260.266 831.838,261.424 828.656,263.663C828.656,263.664 828.656,263.266 828.656,263.266C828.656,261.609 827.313,260.266 825.656,260.266L805.784,260.266C804.127,260.266 802.784,261.609 802.784,263.266L802.784,402.946C802.784,404.602 804.127,405.946 805.784,405.946L825.656,405.946C827.313,405.946 828.656,404.602 828.656,402.946L828.656,290.626C828.656,287.827 828.962,285.802 830.081,284.683C831.17,283.594 832.999,283.258 835.448,283.258L846.968,283.258C848.608,283.258 849.952,283.364 850.997,283.61C851.488,283.725 851.889,283.782 852.101,284.013C852.348,284.282 852.447,284.733 852.57,285.294C852.796,286.323 852.896,287.621 852.896,289.186L852.896,402.946C852.896,404.602 854.239,405.946 855.896,405.946L875.768,405.946C877.425,405.946 878.768,404.602 878.768,402.946L878.768,290.626C878.768,287.827 879.074,285.802 880.193,284.683C881.282,283.594 883.111,283.258 885.56,283.258L897.08,283.258C898.72,283.258 900.064,283.364 901.109,283.61C901.6,283.725 902.001,283.782 902.213,284.013C902.46,284.282 902.559,284.733 902.682,285.294C902.908,286.323 903.008,287.621 903.008,289.186L903.008,402.946C903.008,404.602 904.351,405.946 906.008,405.946L925.88,405.946C927.537,405.946 928.88,404.602 928.88,402.946L928.88,286.018C928.88,277.468 926.588,271.107 922.313,266.832C918.038,262.557 911.678,260.266 903.128,260.266L891.608,260.266ZM891.608,263.266L903.128,263.266C918.296,263.266 925.88,270.85 925.88,286.018L925.88,402.946L906.008,402.946L906.008,289.186C906.008,285.538 905.48,283.138 904.424,281.986C903.368,280.834 900.92,280.258 897.08,280.258L885.56,280.258C882.104,280.258 879.608,281.026 878.072,282.562C876.536,284.098 875.768,286.786 875.768,290.626L875.768,402.946L855.896,402.946L855.896,289.186C855.896,285.538 855.368,283.138 854.312,281.986C853.256,280.834 850.808,280.258 846.968,280.258L835.448,280.258C831.992,280.258 829.496,281.026 827.96,282.562C826.424,284.098 825.656,286.786 825.656,290.626L825.656,402.946L805.784,402.946L805.784,263.266L825.656,263.266L825.656,272.77C827.768,266.434 833.048,263.266 841.496,263.266L853.016,263.266C863.96,263.266 870.968,267.106 874.04,274.786C875.96,267.106 881.816,263.266 891.608,263.266Z" style="fill:rgb(36,36,36);"/>
        <path id="path12" d="M991.256,283.258C992.913,283.258 994.256,281.914 994.256,280.258L994.256,263.266C994.256,261.609 992.913,260.266 991.256,260.266L974.384,260.266L974.384,240.514C974.384,238.857 973.041,237.514 971.384,237.514L951.512,237.514C949.855,237.514 948.512,238.857 948.512,240.514L948.512,260.266L938.84,260.266C937.183,260.266 935.84,261.609 935.84,263.266L935.84,280.258C935.84,281.914 937.183,283.258 938.84,283.258L948.512,283.258C948.512,283.257 948.512,380.194 948.512,380.194C948.512,388.743 950.804,395.104 955.079,399.379C959.354,403.654 965.714,405.946 974.264,405.946L991.256,405.946C992.913,405.946 994.256,404.602 994.256,402.946L994.256,384.514C994.256,382.857 992.913,381.514 991.256,381.514L980.312,381.514C978.77,381.514 977.491,381.408 976.476,381.164C975.933,381.034 975.494,380.925 975.233,380.664C974.973,380.404 974.863,379.964 974.733,379.421C974.49,378.407 974.384,377.127 974.384,375.586L974.384,283.258L991.256,283.258ZM991.256,280.258L971.384,280.258L971.384,375.586C971.384,379.234 971.96,381.634 973.112,382.786C974.264,383.938 976.664,384.514 980.312,384.514L991.256,384.514L991.256,402.946L974.264,402.946C959.096,402.946 951.512,395.362 951.512,380.194L951.512,280.258L938.84,280.258L938.84,263.266L951.512,263.266L951.512,240.514L971.384,240.514L971.384,263.266L991.256,263.266L991.256,280.258Z" style="fill:rgb(36,36,36);"/>
        <path id="path14" d="M1026.97,405.946C1028.62,405.946 1029.97,404.602 1029.97,402.946L1029.97,263.266C1029.97,261.609 1028.62,260.266 1026.97,260.266L1007.1,260.266C1005.44,260.266 1004.1,261.609 1004.1,263.266L1004.1,402.946C1004.1,404.602 1005.44,405.946 1007.1,405.946L1026.97,405.946ZM1026.97,402.946L1007.1,402.946L1007.1,263.266L1026.97,263.266L1026.97,402.946ZM1003.52,233.314C1003.52,234.97 1004.86,236.314 1006.52,236.314L1027.54,236.314C1029.2,236.314 1030.54,234.97 1030.54,233.314L1030.54,209.986C1030.54,208.329 1029.2,206.986 1027.54,206.986L1006.52,206.986C1004.86,206.986 1003.52,208.329 1003.52,209.986L1003.52,233.314ZM1006.52,233.314L1006.52,209.986L1027.54,209.986L1027.54,233.314L1006.52,233.314Z" style="fill:rgb(36,36,36);"/>
        <path id="path16" d="M1103,260.266C1101.34,260.266 1100,261.609 1100,263.266L1100,375.586C1100,378.384 1099.69,380.409 1098.58,381.528C1097.49,382.617 1095.66,382.954 1093.21,382.954L1081.69,382.954C1080.12,382.954 1078.83,382.854 1077.8,382.628C1077.24,382.504 1076.79,382.405 1076.52,382.158C1076.28,381.946 1076.23,381.545 1076.11,381.054C1075.87,380.009 1075.76,378.665 1075.76,377.026L1075.76,263.266C1075.76,261.609 1074.42,260.266 1072.76,260.266L1052.89,260.266C1051.23,260.266 1049.89,261.609 1049.89,263.266L1049.89,380.194C1049.89,388.743 1052.18,395.104 1056.45,399.379C1060.73,403.654 1067.09,405.946 1075.64,405.946L1087.16,405.946C1092.55,405.946 1096.82,404.787 1100,402.548C1100,402.547 1100,402.946 1100,402.946C1100,404.602 1101.34,405.946 1103,405.946L1122.87,405.946C1124.53,405.946 1125.87,404.602 1125.87,402.946L1125.87,263.266C1125.87,261.609 1124.53,260.266 1122.87,260.266L1103,260.266ZM1103,263.266L1122.87,263.266L1122.87,402.946L1103,402.946L1103,393.442C1100.89,399.778 1095.61,402.946 1087.16,402.946L1075.64,402.946C1060.47,402.946 1052.89,395.362 1052.89,380.194L1052.89,263.266L1072.76,263.266L1072.76,377.026C1072.76,380.866 1073.34,383.314 1074.49,384.37C1075.64,385.426 1078.04,385.954 1081.69,385.954L1093.21,385.954C1096.66,385.954 1099.16,385.186 1100.7,383.65C1102.23,382.114 1103,379.426 1103,375.586L1103,263.266Z" style="fill:rgb(36,36,36);"/>
        <path id="path18" d="M1234.62,260.266C1225.95,260.266 1220,262.971 1216.62,268.165C1212.37,262.981 1205.55,260.266 1196.02,260.266L1184.5,260.266C1179.11,260.266 1174.85,261.424 1171.66,263.663C1171.66,263.664 1171.66,263.266 1171.66,263.266C1171.66,261.609 1170.32,260.266 1168.66,260.266L1148.79,260.266C1147.13,260.266 1145.79,261.609 1145.79,263.266L1145.79,402.946C1145.79,404.602 1147.13,405.946 1148.79,405.946L1168.66,405.946C1170.32,405.946 1171.66,404.602 1171.66,402.946L1171.66,290.626C1171.66,287.827 1171.97,285.802 1173.09,284.683C1174.18,283.594 1176.01,283.258 1178.46,283.258L1189.98,283.258C1191.62,283.258 1192.96,283.364 1194.01,283.61C1194.5,283.725 1194.9,283.782 1195.11,284.013C1195.36,284.282 1195.45,284.733 1195.58,285.294C1195.8,286.323 1195.9,287.621 1195.9,289.186L1195.9,402.946C1195.9,404.602 1197.25,405.946 1198.9,405.946L1218.78,405.946C1220.43,405.946 1221.78,404.602 1221.78,402.946L1221.78,290.626C1221.78,287.827 1222.08,285.802 1223.2,284.683C1224.29,283.594 1226.12,283.258 1228.57,283.258L1240.09,283.258C1241.73,283.258 1243.07,283.364 1244.12,283.61C1244.61,283.725 1245.01,283.782 1245.22,284.013C1245.47,284.282 1245.57,284.733 1245.69,285.294C1245.92,286.323 1246.02,287.621 1246.02,289.186L1246.02,402.946C1246.02,404.602 1247.36,405.946 1249.02,405.946L1268.89,405.946C1270.55,405.946 1271.89,404.602 1271.89,402.946L1271.89,286.018C1271.89,277.468 1269.6,271.107 1265.32,266.832C1261.05,262.557 1254.69,260.266 1246.14,260.266L1234.62,260.266ZM1234.62,263.266L1246.14,263.266C1261.3,263.266 1268.89,270.85 1268.89,286.018L1268.89,402.946L1249.02,402.946L1249.02,289.186C1249.02,285.538 1248.49,283.138 1247.43,281.986C1246.38,280.834 1243.93,280.258 1240.09,280.258L1228.57,280.258C1225.11,280.258 1222.62,281.026 1221.08,282.562C1219.54,284.098 1218.78,286.786 1218.78,290.626L1218.78,402.946L1198.9,402.946L1198.9,289.186C1198.9,285.538 1198.38,283.138 1197.32,281.986C1196.26,280.834 1193.82,280.258 1189.98,280.258L1178.46,280.258C1175,280.258 1172.5,281.026 1170.97,282.562C1169.43,284.098 1168.66,286.786 1168.66,290.626L1168.66,402.946L1148.79,402.946L1148.79,263.266L1168.66,263.266L1168.66,272.77C1170.78,266.434 1176.06,263.266 1184.5,263.266L1196.02,263.266C1206.97,263.266 1213.98,267.106 1217.05,274.786C1218.97,267.106 1224.82,263.266 1234.62,263.266Z" style="fill:rgb(36,36,36);"/>
        <rect id="rect20" x="1299.85" y="324.151" width="137.952" height="16.704" style="fill:rgb(36,36,36);stroke:rgb(36,36,36);stroke-width:1px;"/>
    </g>
</svg>
