<?xml version="1.0" encoding="UTF-8" standalone="no"?>
<!-- Created with Inkscape (http://www.inkscape.org/) -->

<svg
   width="126.02321mm"
   height="126.02319mm"
   viewBox="0 0 126.02321 126.02319"
   version="1.1"
   id="svg5"
   inkscape:version="1.1.2 (08b2f3d93c, 2022-04-05)"
   sodipodi:docname="logo.svg"
   xmlns:inkscape="http://www.inkscape.org/namespaces/inkscape"
   xmlns:sodipodi="http://sodipodi.sourceforge.net/DTD/sodipodi-0.dtd"
   xmlns="http://www.w3.org/2000/svg"
   xmlns:svg="http://www.w3.org/2000/svg">
  <sodipodi:namedview
     id="namedview7"
     pagecolor="#ffffff"
     bordercolor="#999999"
     borderopacity="1"
     inkscape:pageshadow="0"
     inkscape:pageopacity="0"
     inkscape:pagecheckerboard="true"
     inkscape:document-units="mm"
     showgrid="false"
     fit-margin-top="0"
     fit-margin-left="0"
     fit-margin-right="0"
     fit-margin-bottom="0"
     inkscape:zoom="0.69664703"
     inkscape:cx="198.80943"
     inkscape:cy="247.61463"
     inkscape:window-width="1920"
     inkscape:window-height="1016"
     inkscape:window-x="0"
     inkscape:window-y="0"
     inkscape:window-maximized="1"
     inkscape:current-layer="layer1" />
  <defs
     id="defs2" />
  <g
     inkscape:label="Layer 1"
     inkscape:groupmode="layer"
     id="layer1"
     transform="translate(-52.446198,-52.446205)">
    <path
       id="rect846"
       style="fill:none;stroke:#ffffff;stroke-width:5;stroke-linecap:round;stroke-linejoin:round;stroke-miterlimit:2;paint-order:stroke markers fill"
       d="M 54.946198,54.946205 H 88.231705 V 88.231712 H 54.946198 Z" />
    <path
       id="rect846-7"
       style="fill:none;stroke:#ffffff;stroke-width:5;stroke-linecap:round;stroke-linejoin:round;stroke-miterlimit:2;paint-order:stroke markers fill"
       d="M 54.946205,98.815033 H 88.231712 V 132.10054 H 54.946205 Z" />
    <path
       id="rect846-7-5"
       style="fill:none;stroke:#ffffff;stroke-width:5;stroke-linecap:round;stroke-linejoin:round;stroke-miterlimit:2;paint-order:stroke markers fill"
       d="m 54.946209,142.68388 h 33.285507 v 33.28551 H 54.946209 Z" />
    <path
       id="rect846-6"
       style="fill:none;stroke:#ffffff;stroke-width:5;stroke-linecap:round;stroke-linejoin:round;stroke-miterlimit:2;paint-order:stroke markers fill"
       d="M 98.815033,54.946205 H 132.10054 V 88.231712 H 98.815033 Z" />
    <path
       id="rect846-7-2"
       style="fill:none;stroke:#ffffff;stroke-width:5;stroke-linecap:round;stroke-linejoin:round;stroke-miterlimit:2;paint-order:stroke markers fill"
       d="M 98.815041,98.815033 H 132.10055 V 132.10054 H 98.815041 Z" />
    <path
       id="rect846-7-5-9"
       style="fill:none;stroke:#ffffff;stroke-width:5;stroke-linecap:round;stroke-linejoin:round;stroke-miterlimit:2;paint-order:stroke markers fill"
       d="m 98.815041,142.68388 h 33.285509 v 33.28551 H 98.815041 Z" />
    <path
       id="rect846-1"
       style="fill:none;stroke:#ffffff;stroke-width:5;stroke-linecap:round;stroke-linejoin:round;stroke-miterlimit:2;paint-order:stroke markers fill"
       d="m 142.68388,54.946205 h 33.28551 v 33.285507 h -33.28551 z" />
    <path
       id="rect846-7-27"
       style="fill:none;stroke:#ffffff;stroke-width:5;stroke-linecap:round;stroke-linejoin:round;stroke-miterlimit:2;paint-order:stroke markers fill"
       d="m 142.6839,98.815025 h 33.28551 V 132.10053 H 142.6839 Z" />
    <path
       id="rect846-7-5-0"
       style="fill:none;stroke:#ffffff;stroke-width:5;stroke-linecap:round;stroke-linejoin:round;stroke-miterlimit:2;paint-order:stroke markers fill"
       d="m 142.6839,142.68388 h 33.28551 v 33.28551 H 142.6839 Z" />
    <g
       aria-label="p"
       id="text7634"
       style="font-size:28.2222px;line-height:1.25;font-family:'DejaVu Sans Mono';-inkscape-font-specification:'DejaVu Sans Mono';fill:#ffffff;stroke-width:0.264583">
      <path
         d="m 72.280396,76.838288 q -0.423333,0 -1.241777,-0.08467 -0.818444,-0.08467 -1.693332,-0.366889 Q 68.470399,76.076289 67.84951,75.4554 l 0.846666,-1.326443 v 7.394216 H 64.575735 V 65.154297 q 0,-0.931332 0.536222,-1.580443 0.536222,-0.649111 1.467554,-1.072444 0.931333,-0.423333 2.144888,-0.620888 1.241776,-0.225778 2.652886,-0.225778 2.144888,0 3.753553,0.733778 1.636888,0.705555 2.539998,2.398887 0.931333,1.693332 0.931333,4.62844 0,2.201332 -0.762,3.894664 -0.761999,1.66511 -2.173109,2.596443 -1.382888,0.931332 -3.386664,0.931332 z m -1.241777,-3.386664 q 1.128888,0 1.862665,-0.395111 0.733777,-0.395111 1.100666,-1.298221 0.395111,-0.931333 0.395111,-2.483554 0,-1.298221 -0.282222,-2.201331 -0.282222,-0.903111 -0.987777,-1.382888 -0.677333,-0.508 -1.91911,-0.508 -1.354665,0 -1.947332,0.282222 -0.564444,0.254 -0.564444,0.677333 v 6.716884 q 0.536222,0.310444 1.185333,0.451555 0.64911,0.141111 1.15711,0.141111 z"
         style="font-weight:bold;font-family:'Maven Pro';-inkscape-font-specification:'Maven Pro Bold'"
         id="path915" />
    </g>
    <g
       aria-label="i"
       id="text7634-4"
       style="font-size:28.2222px;line-height:1.25;font-family:'DejaVu Sans Mono';-inkscape-font-specification:'DejaVu Sans Mono';fill:#ffffff;stroke-width:0.264583">
      <path
         d="M 113.36934,81.325615 V 67.242737 h 4.20511 l 0.0282,14.082878 z m -0.0847,-16.227765 v -3.245553 h 4.34622 v 3.245553 z"
         style="font-weight:bold;font-family:'Maven Pro';-inkscape-font-specification:'Maven Pro Bold'"
         id="path918" />
    </g>
    <g
       aria-label="a"
       id="text7634-4-4"
       style="font-size:28.2222px;line-height:1.25;font-family:'DejaVu Sans Mono';-inkscape-font-specification:'DejaVu Sans Mono';fill:#ffffff;stroke-width:0.264583">
      <path
         d="m 159.00209,79.152505 q -1.29822,0 -2.45533,-0.254 -1.12889,-0.225778 -2.00378,-0.761999 -0.84667,-0.564444 -1.32644,-1.495777 -0.47978,-0.959555 -0.47978,-2.370665 0,-1.326443 0.53622,-2.31422 0.56444,-0.987777 1.69333,-1.523999 1.12889,-0.536222 2.85045,-0.536222 0.95955,0 1.86266,0.197555 0.90311,0.197556 1.60867,0.536222 0.73377,0.338667 1.15711,0.733777 l 0.16933,2.031999 q -0.56444,-0.338667 -1.35467,-0.536222 -0.79022,-0.197555 -1.69333,-0.197555 -1.38289,0 -2.032,0.423333 -0.62089,0.39511 -0.62089,1.269999 0,0.536221 0.31045,0.959555 0.31044,0.423333 0.81844,0.64911 0.53622,0.225778 1.10067,0.225778 1.43933,0 2.00377,-0.197556 0.59267,-0.197555 0.59267,-0.790221 v -5.24933 q 0,-1.298221 -0.84667,-1.862665 -0.81844,-0.592666 -2.34244,-0.592666 -1.24177,0 -2.51177,0.451555 -1.24178,0.423333 -2.032,1.044222 v -3.725331 q 0.73378,-0.451555 2.25777,-0.846666 1.55223,-0.395111 3.47133,-0.395111 0.67734,0 1.49578,0.112889 0.81845,0.112889 1.63689,0.423333 0.81844,0.282222 1.49578,0.846666 0.70555,0.564444 1.12888,1.439332 0.42334,0.874889 0.42334,2.17311 l -0.0282,6.745106 q 0,1.213554 -0.81844,1.975554 -0.81844,0.733777 -2.37066,1.072443 -1.524,0.338667 -3.69711,0.338667 z"
         style="font-weight:bold;font-family:'Maven Pro';-inkscape-font-specification:'Maven Pro Bold'"
         id="path921" />
    </g>
    <g
       aria-label="a"
       id="text7634-4-4-8"
       style="font-size:28.2222px;line-height:1.25;font-family:'DejaVu Sans Mono';-inkscape-font-specification:'DejaVu Sans Mono';fill:#ffffff;stroke-width:0.264583">
      <path
         d="m 71.264409,166.89019 q -1.298221,0 -2.455332,-0.254 -1.128888,-0.22578 -2.003776,-0.762 -0.846666,-0.56444 -1.326443,-1.49577 -0.479778,-0.95956 -0.479778,-2.37067 0,-1.32644 0.536222,-2.31422 0.564444,-0.98778 1.693332,-1.524 1.128888,-0.53622 2.850442,-0.53622 0.959555,0 1.862666,0.19755 0.90311,0.19756 1.608665,0.53623 0.733777,0.33866 1.15711,0.73377 l 0.169334,2.032 q -0.564444,-0.33866 -1.354666,-0.53622 -0.790222,-0.19756 -1.693332,-0.19756 -1.382888,0 -2.031999,0.42334 -0.620888,0.39511 -0.620888,1.27 0,0.53622 0.310444,0.95955 0.310444,0.42333 0.818444,0.64911 0.536222,0.22578 1.100666,0.22578 1.439332,0 2.003776,-0.19756 0.592666,-0.19755 0.592666,-0.79022 v -5.24933 q 0,-1.29822 -0.846666,-1.86266 -0.818443,-0.59267 -2.342442,-0.59267 -1.241777,0 -2.511776,0.45156 -1.241777,0.42333 -2.031999,1.04422 v -3.72533 q 0.733778,-0.45156 2.257776,-0.84667 1.552221,-0.39511 3.471331,-0.39511 0.677333,0 1.495777,0.11289 0.818444,0.11289 1.636887,0.42333 0.818444,0.28223 1.495777,0.84667 0.705555,0.56444 1.128888,1.43933 0.423333,0.87489 0.423333,2.17311 l -0.02822,6.74511 q 0,1.21355 -0.818444,1.97555 -0.818444,0.73378 -2.370665,1.07244 -1.523999,0.33867 -3.697108,0.33867 z"
         style="font-weight:bold;font-family:'Maven Pro';-inkscape-font-specification:'Maven Pro Bold'"
         id="path933" />
    </g>
    <g
       aria-label="n"
       id="text7634-4-4-3"
       style="font-size:28.2222px;line-height:1.25;font-family:'DejaVu Sans Mono';-inkscape-font-specification:'DejaVu Sans Mono';fill:#ffffff;stroke-width:0.264583">
      <path
         d="m 64.857966,109.72868 q 0.536221,-0.28222 1.41111,-0.56444 0.874888,-0.31044 1.919109,-0.53622 1.044222,-0.22578 2.088443,-0.36689 1.072444,-0.14111 1.975554,-0.14111 1.91911,0 3.273775,0.508 1.354666,0.47978 2.060221,1.58044 0.733777,1.10067 0.733777,2.99155 v 9.59555 h -4.205108 v -8.74888 q 0,-0.53622 -0.169333,-0.98778 -0.141111,-0.45155 -0.451555,-0.762 -0.310444,-0.33866 -0.846666,-0.508 -0.536222,-0.19755 -1.298221,-0.19755 -0.649111,0 -1.298222,0.16933 -0.64911,0.14111 -0.987777,0.31045 v 10.72443 h -4.205107 z"
         style="font-weight:bold;font-family:'Maven Pro';-inkscape-font-specification:'Maven Pro Bold'"
         id="path930" />
    </g>
    <g
       aria-label="o"
       id="text7634-4-4-3-7"
       style="font-size:28.2222px;line-height:1.25;font-family:'DejaVu Sans Mono';-inkscape-font-specification:'DejaVu Sans Mono';fill:#ffffff;stroke-width:0.264583">
      <path
         d="m 115.42957,123.04956 q -3.61244,0 -5.44688,-1.91911 -1.80622,-1.94733 -1.80622,-5.70088 0,-4.03578 1.83444,-5.78555 1.86267,-1.778 5.41866,-1.778 2.39889,0 4.00756,0.81844 1.63688,0.79022 2.45533,2.45533 0.84666,1.66511 0.84666,4.28978 0,3.75355 -1.89088,5.70088 -1.89089,1.91911 -5.41867,1.91911 z m 0,-3.35844 q 1.04423,0 1.72156,-0.47978 0.70555,-0.508 1.04422,-1.43933 0.36689,-0.95955 0.36689,-2.34244 0,-1.58045 -0.36689,-2.48356 -0.33867,-0.93133 -1.04422,-1.32644 -0.70556,-0.42333 -1.72156,-0.42333 -1.07244,0 -1.74977,0.42333 -0.67733,0.42333 -1.016,1.35467 -0.31045,0.90311 -0.31045,2.45533 0,2.14488 0.73378,3.21733 0.762,1.04422 2.34244,1.04422 z"
         style="font-weight:bold;font-family:'Maven Pro';-inkscape-font-specification:'Maven Pro Bold'"
         id="path927" />
    </g>
    <g
       aria-label="d"
       id="text7634-4-4-3-7-3"
       style="font-size:28.2222px;line-height:1.25;font-family:'DejaVu Sans Mono';-inkscape-font-specification:'DejaVu Sans Mono';fill:#ffffff;stroke-width:0.264583">
      <path
         d="m 115.96579,169.61363 q -1.66511,0 -3.07622,-0.36689 -1.38289,-0.36689 -2.39889,-1.21356 -1.01599,-0.87489 -1.60866,-2.37066 -0.56445,-1.49578 -0.56445,-3.72533 0,-3.47133 1.69334,-5.47511 1.72155,-2.00378 5.13644,-2.00378 0.45155,0 1.18533,0.0847 0.73378,0.0564 1.524,0.33867 0.79022,0.28222 1.41111,0.95955 l -0.84667,1.29822 v -8.09977 h 4.17689 v 16.42532 q 0,1.04422 -0.56445,1.83444 -0.56444,0.762 -1.52399,1.27 -0.93134,0.508 -2.11667,0.762 -1.18533,0.28223 -2.42711,0.28223 z m 0.16933,-3.52778 q 1.016,0 1.63689,-0.254 0.64911,-0.28222 0.64911,-0.81844 v -6.57578 q -0.508,-0.28222 -1.10066,-0.42333 -0.56445,-0.16933 -1.10067,-0.16933 -1.18533,0 -2.00378,0.39511 -0.81844,0.39511 -1.24177,1.32644 -0.39511,0.93133 -0.39511,2.51178 0,1.24177 0.33866,2.14489 0.33867,0.87488 1.10067,1.38288 0.79022,0.47978 2.11666,0.47978 z"
         style="font-weight:bold;font-family:'Maven Pro';-inkscape-font-specification:'Maven Pro Bold'"
         id="path936" />
    </g>
    <g
       aria-label="p"
       id="text7634-4-4-3-7-6"
       style="font-size:28.2222px;line-height:1.25;font-family:'DejaVu Sans Mono';-inkscape-font-specification:'DejaVu Sans Mono';fill:#ffffff;stroke-width:0.264583">
      <path
         d="m 160.0181,120.70712 q -0.42333,0 -1.24178,-0.0847 -0.81844,-0.0847 -1.69333,-0.36689 -0.87489,-0.31044 -1.49577,-0.93133 l 0.84666,-1.32645 v 7.39422 h -4.12044 v -16.36887 q 0,-0.93134 0.53622,-1.58045 0.53622,-0.64911 1.46756,-1.07244 0.93133,-0.42333 2.14488,-0.62089 1.24178,-0.22578 2.65289,-0.22578 2.14489,0 3.75355,0.73378 1.63689,0.70555 2.54,2.39889 0.93133,1.69333 0.93133,4.62844 0,2.20133 -0.762,3.89466 -0.76199,1.66511 -2.1731,2.59644 -1.38289,0.93134 -3.38667,0.93134 z m -1.24178,-3.38667 q 1.12889,0 1.86267,-0.39511 0.73378,-0.39511 1.10067,-1.29822 0.39511,-0.93133 0.39511,-2.48355 0,-1.29822 -0.28223,-2.20134 -0.28222,-0.90311 -0.98777,-1.38288 -0.67734,-0.508 -1.91911,-0.508 -1.35467,0 -1.94733,0.28222 -0.56445,0.254 -0.56445,0.67733 v 6.71689 q 0.53622,0.31044 1.18533,0.45155 0.64911,0.14111 1.15711,0.14111 z"
         style="font-weight:bold;font-family:'Maven Pro';-inkscape-font-specification:'Maven Pro Bold'"
         id="path924" />
    </g>
    <text
       xml:space="preserve"
       style="font-size:10.5833px;line-height:1.25;font-family:'DejaVu Sans Mono';-inkscape-font-specification:'DejaVu Sans Mono';stroke-width:0.264583"
       x="163.08356"
       y="71.582535"
       id="text26019"><tspan
         sodipodi:role="line"
         id="tspan26017"
         style="stroke-width:0.264583"
         x="163.08356"
         y="71.582535" /></text>
  </g>
</svg>
